<svg xmlns="http://www.w3.org/2000/svg" xmlns:xlink="http://www.w3.org/1999/xlink" width="1080" zoomAndPan="magnify" viewBox="0 0 810 809.999993" height="1080" preserveAspectRatio="xMidYMid meet" version="1.0"><defs><g/></defs><path stroke-linecap="butt" transform="matrix(2.097521, 0, 0, 2.097521, 90.436926, -145.220877)" fill="none" stroke-linejoin="miter" d="M 140.290534 212.606937 C 139.391035 213.005473 138.044579 213.754124 136.247443 214.852892 C 134.649574 215.851094 132.379409 217.324188 129.435084 219.27031 C 126.488897 221.216432 122.620863 223.886995 117.82912 227.280138 C 118.628054 225.782835 118.603844 224.635647 117.754627 223.836713 C 116.90541 223.037779 115.782432 222.488395 114.385694 222.190424 C 112.689123 221.790026 110.692718 221.64104 108.39648 221.739743 C 104.802207 222.039576 99.636137 222.389692 92.898272 222.788228 C 86.160406 223.188626 78.549113 223.53688 70.064393 223.836713 C 70.064393 239.80795 69.963828 252.810653 69.76456 262.842959 C 69.565292 272.875265 69.414444 280.687688 69.315741 286.276504 C 69.114611 292.865384 68.915343 297.70741 68.716075 300.80072 C 68.516807 302.797125 67.917141 304.745109 66.918938 306.640948 C 66.120004 308.33752 64.848041 310.134657 63.101187 312.032358 C 61.354333 313.928198 58.93332 315.624769 55.838148 317.122073 L 123.669348 317.122073 C 126.863223 317.122073 130.107381 316.922805 133.401821 316.524269 C 136.19716 316.224436 139.191767 315.725335 142.385642 315.026965 C 145.581379 314.326734 148.626269 313.280111 151.520311 311.881511 C 146.529299 316.574552 141.58857 320.166963 136.696261 322.662468 C 131.805815 325.157974 127.312042 326.955111 123.22053 328.053878 C 118.428786 329.351914 113.886593 330.100566 109.59395 330.299834 C 99.811195 330.299834 90.577824 330.350116 81.893836 330.448819 C 73.207986 330.549384 65.371352 330.748652 58.383936 331.048485 C 51.39652 331.348318 45.431516 331.722644 40.490787 332.171463 C 35.550058 332.620282 31.979995 333.143593 29.784322 333.743259 C 32.879494 330.648087 35.300507 327.60506 37.047361 324.60859 C 38.794215 321.613983 40.116461 318.271123 41.014098 314.576285 C 41.913598 310.883308 42.487191 306.715441 42.736742 302.074545 C 42.986293 297.431787 43.060785 291.917464 42.962083 285.527852 L 42.962083 224.136546 C 40.066178 224.136546 37.246629 224.086263 34.501573 223.987561 C 31.756516 223.886995 29.085953 223.73801 26.489882 223.53688 L 42.962083 215.001877 C 42.962083 209.61233 42.93601 203.947159 42.885727 198.008228 C 42.837307 192.067434 42.811235 185.703894 42.811235 178.915746 C 42.811235 172.127597 42.787025 164.816138 42.736742 156.979504 C 42.686459 149.142871 42.662249 140.583659 42.662249 131.300005 C 38.170339 131.300005 33.927979 131.249722 29.93517 131.151019 C 25.94236 131.050454 22.247522 130.901469 18.854379 130.700338 L 46.705341 115.876289 C 65.671186 115.876289 81.867763 115.751513 95.295075 115.501963 C 108.720523 115.252412 119.825524 114.978652 128.610077 114.678818 C 138.793231 114.280282 147.277951 113.879884 154.066099 113.481348 C 157.459242 113.481348 159.705197 113.755109 160.803965 114.304492 C 161.902732 114.853876 162.351551 115.453543 162.152283 116.101629 C 161.951153 116.749716 161.353349 117.423875 160.355146 118.122244 C 159.356944 118.822475 158.457444 119.321577 157.660372 119.619547 C 156.861438 120.019946 155.364135 120.869163 153.1666 122.165336 C 151.27076 123.264103 148.600196 124.986747 145.156771 127.331405 C 141.713345 129.677926 136.996094 132.847591 131.00688 136.8404 C 133.003285 134.644727 133.85064 133.022649 133.552669 131.974164 C 133.252836 130.925679 132.554466 130.152817 131.455699 129.653716 C 130.157663 129.152752 128.360527 128.903202 126.064289 128.903202 C 124.168449 129.104332 121.322828 129.277527 117.529287 129.428375 C 113.737608 129.577361 109.32019 129.752418 104.278896 129.951686 C 99.237601 130.152817 93.771699 130.352085 87.88305 130.551353 C 81.992539 130.750621 75.953042 130.901469 69.76456 131.000171 C 69.863263 146.971409 69.939618 161.296357 69.988038 173.975017 C 70.038321 186.651814 70.064393 198.281988 70.064393 208.863678 C 80.245685 208.763113 89.404563 208.588055 97.54103 208.338504 C 105.675634 208.088954 112.63884 207.815193 118.428786 207.51536 C 125.216934 207.116824 131.256431 206.766708 136.547276 206.466875 C 139.841716 206.368172 142.037389 206.56744 143.134294 207.066541 C 144.233061 207.565642 144.68188 208.165309 144.482612 208.863678 C 144.283344 209.562047 143.70975 210.286489 142.759968 211.03514 C 141.812048 211.783792 140.988904 212.307103 140.290534 212.606937 Z M 140.290534 212.606937 " stroke="#ffffff" stroke-width="23.000025" stroke-opacity="1" stroke-miterlimit="4"/><g fill="#000000" fill-opacity="1"><g transform="translate(108.626363, 546.960937)"><g><path d="M 276.0625 -246.234375 C 274.1875 -245.390625 271.363281 -243.816406 267.59375 -241.515625 C 264.238281 -239.421875 259.472656 -236.332031 253.296875 -232.25 C 247.117188 -228.164062 239.003906 -222.566406 228.953125 -215.453125 C 230.628906 -218.597656 230.578125 -221.003906 228.796875 -222.671875 C 227.015625 -224.347656 224.660156 -225.5 221.734375 -226.125 C 218.171875 -226.96875 213.984375 -227.285156 209.171875 -227.078125 C 201.628906 -226.441406 190.789062 -225.707031 176.65625 -224.875 C 162.53125 -224.039062 146.566406 -223.304688 128.765625 -222.671875 C 128.765625 -189.171875 128.554688 -161.898438 128.140625 -140.859375 C 127.722656 -119.816406 127.410156 -103.429688 127.203125 -91.703125 C 126.785156 -77.890625 126.363281 -67.738281 125.9375 -61.25 C 125.519531 -57.0625 124.265625 -52.976562 122.171875 -49 C 120.492188 -45.4375 117.820312 -41.664062 114.15625 -37.6875 C 110.5 -33.707031 105.425781 -30.148438 98.9375 -27.015625 L 241.203125 -27.015625 C 247.898438 -27.015625 254.707031 -27.429688 261.625 -28.265625 C 267.488281 -28.890625 273.769531 -29.9375 280.46875 -31.40625 C 287.164062 -32.875 293.550781 -35.070312 299.625 -38 C 289.15625 -28.15625 278.789062 -20.613281 268.53125 -15.375 C 258.269531 -10.144531 248.847656 -6.378906 240.265625 -4.078125 C 230.210938 -1.359375 220.6875 0.207031 211.6875 0.625 C 191.164062 0.625 171.796875 0.726562 153.578125 0.9375 C 135.359375 1.144531 118.921875 1.5625 104.265625 2.1875 C 89.609375 2.820312 77.097656 3.609375 66.734375 4.546875 C 56.367188 5.492188 48.882812 6.597656 44.28125 7.859375 C 50.769531 1.359375 55.847656 -5.03125 59.515625 -11.3125 C 63.179688 -17.59375 65.957031 -24.601562 67.84375 -32.34375 C 69.726562 -40.09375 70.929688 -48.832031 71.453125 -58.5625 C 71.972656 -68.300781 72.128906 -79.875 71.921875 -93.28125 L 71.921875 -222.046875 C 65.847656 -222.046875 59.929688 -222.148438 54.171875 -222.359375 C 48.421875 -222.566406 42.820312 -222.882812 37.375 -223.3125 L 71.921875 -241.203125 C 71.921875 -252.515625 71.867188 -264.398438 71.765625 -276.859375 C 71.660156 -289.316406 71.609375 -302.660156 71.609375 -316.890625 C 71.609375 -331.128906 71.554688 -346.46875 71.453125 -362.90625 C 71.347656 -379.34375 71.296875 -397.296875 71.296875 -416.765625 C 61.867188 -416.765625 52.96875 -416.867188 44.59375 -417.078125 C 36.21875 -417.296875 28.472656 -417.613281 21.359375 -418.03125 L 79.78125 -449.125 C 119.5625 -449.125 153.53125 -449.382812 181.6875 -449.90625 C 209.851562 -450.425781 233.148438 -451.003906 251.578125 -451.640625 C 272.929688 -452.472656 290.726562 -453.304688 304.96875 -454.140625 C 312.082031 -454.140625 316.789062 -453.5625 319.09375 -452.40625 C 321.394531 -451.257812 322.335938 -450.003906 321.921875 -448.640625 C 321.503906 -447.285156 320.25 -445.875 318.15625 -444.40625 C 316.0625 -442.945312 314.175781 -441.898438 312.5 -441.265625 C 310.820312 -440.429688 307.679688 -438.65625 303.078125 -435.9375 C 299.097656 -433.632812 293.492188 -430.019531 286.265625 -425.09375 C 279.046875 -420.175781 269.15625 -413.53125 256.59375 -405.15625 C 260.78125 -409.757812 262.5625 -413.160156 261.9375 -415.359375 C 261.3125 -417.554688 259.84375 -419.179688 257.53125 -420.234375 C 254.8125 -421.273438 251.046875 -421.796875 246.234375 -421.796875 C 242.253906 -421.378906 236.285156 -421.015625 228.328125 -420.703125 C 220.367188 -420.390625 211.101562 -420.019531 200.53125 -419.59375 C 189.957031 -419.175781 178.492188 -418.757812 166.140625 -418.34375 C 153.785156 -417.925781 141.117188 -417.613281 128.140625 -417.40625 C 128.347656 -383.90625 128.503906 -353.859375 128.609375 -327.265625 C 128.710938 -300.671875 128.765625 -276.273438 128.765625 -254.078125 C 150.128906 -254.285156 169.34375 -254.648438 186.40625 -255.171875 C 203.46875 -255.703125 218.070312 -256.28125 230.21875 -256.90625 C 244.457031 -257.75 257.125 -258.484375 268.21875 -259.109375 C 275.125 -259.316406 279.726562 -258.894531 282.03125 -257.84375 C 284.332031 -256.800781 285.273438 -255.546875 284.859375 -254.078125 C 284.441406 -252.617188 283.238281 -251.101562 281.25 -249.53125 C 279.257812 -247.957031 277.53125 -246.859375 276.0625 -246.234375 Z M 276.0625 -246.234375 "/></g></g></g><path stroke-linecap="butt" transform="matrix(1.89362, 0, 0, 1.89362, 338.076901, 70.707981)" fill="none" stroke-linejoin="miter" d="M 72.022912 113.779991 C 68.629528 116.07594 64.910213 118.547232 60.867032 121.191802 C 56.825913 123.838436 52.807485 126.15914 48.813812 128.155976 C 55.202452 145.226041 61.217716 161.297688 66.857541 176.370916 C 72.497367 191.444145 77.83808 205.943901 82.87968 219.868124 C 87.919217 233.794409 92.587441 247.320501 96.880227 260.448464 C 101.17095 273.574364 105.164624 286.626002 108.859184 299.603377 C 113.350003 291.917206 118.042982 283.682318 122.933994 274.89665 C 127.825006 266.113044 132.567493 257.077771 137.159392 247.794956 C 141.751291 238.512141 146.11834 229.051922 150.260538 219.420486 C 154.402736 209.786987 158.020971 200.279322 161.117306 190.895427 C 164.211577 181.511533 166.656052 172.352489 168.452792 163.418295 C 170.249532 154.484102 171.148934 146.024363 171.148934 138.037017 C 171.148934 136.939582 171.099426 135.866901 170.998346 134.818975 C 170.899329 133.771048 170.748742 132.797384 170.550708 131.897982 C 169.152097 131.699949 167.703978 131.598869 166.206351 131.598869 C 164.710786 131.598869 163.16365 131.598869 161.564943 131.598869 C 158.769785 131.598869 155.99938 131.675195 153.255793 131.82372 C 150.510142 131.974308 147.989343 132.199158 145.693393 132.498271 C 150.285292 128.304501 154.402736 125.111213 158.045725 122.91428 C 161.690777 120.71941 164.809803 119.071195 167.404865 117.97376 C 170.40012 116.775245 173.044691 116.07594 175.340641 115.877907 C 177.238461 115.877907 179.633427 115.85109 182.527602 115.801581 C 185.42384 115.752073 188.493358 115.67781 191.738217 115.576731 C 194.981014 115.477714 198.275382 115.353943 201.619258 115.203355 C 204.963134 115.052768 208.032651 114.904243 210.82781 114.753655 C 213.622969 114.60513 216.044752 114.454542 218.091097 114.303954 C 220.137442 114.155429 221.459727 113.980087 222.057953 113.779991 C 219.9621 115.277618 217.690905 116.849508 215.24643 118.497723 C 212.799893 120.143876 210.303847 121.742583 207.758293 123.289719 C 205.212739 124.836854 202.64243 126.282911 200.047368 127.632013 C 197.452305 128.979053 194.95626 130.101242 192.561293 131.000643 C 191.463858 140.683651 189.217417 151.014392 185.82197 161.994931 C 182.428585 172.975469 178.486483 184.007579 173.993601 195.087134 C 169.500719 206.168752 164.710786 216.92444 159.619678 227.356261 C 154.52857 237.788082 149.687066 247.246239 145.095167 255.730731 C 140.503268 264.215224 136.435332 271.402186 132.89136 277.293679 C 129.347388 283.183109 126.876096 287.075703 125.479548 288.97146 C 123.781824 291.467505 122.034592 294.114139 120.237852 296.907235 C 118.740225 299.304264 117.118826 302.049914 115.371594 305.144186 C 113.624362 308.238457 112.052472 311.431746 110.655924 314.726114 L 90.741192 334.640846 C 88.744356 328.452302 87.071386 323.212669 85.724347 318.919883 C 84.377307 314.627097 83.154038 310.858274 82.054541 307.613415 C 80.957106 304.370618 79.958687 301.375363 79.061349 298.629713 C 78.161947 295.884062 77.163529 292.965133 76.066094 289.870861 C 74.968659 286.77659 73.720636 283.30688 72.322025 279.463795 C 70.925477 275.620709 69.202999 270.905039 67.156654 265.314722 C 65.110309 259.724405 62.639018 253.110915 59.744842 245.474252 C 56.850667 237.83759 53.405711 228.653792 49.412038 217.922858 C 45.420428 207.191924 40.77902 194.763267 35.487816 180.638948 C 30.196612 166.512567 24.107085 150.166562 17.219236 131.598869 L 11.379315 131.598869 C 8.584156 131.598869 5.788997 131.675195 2.993838 131.82372 C 0.19868 131.974308 -2.346874 132.199158 -4.642824 132.498271 C 0.0501548 128.304501 4.217107 125.111213 7.862159 122.91428 C 11.505148 120.71941 14.624174 119.071195 17.219236 117.97376 C 20.214491 116.775245 22.859062 116.07594 25.155012 115.877907 C 27.052832 115.877907 29.447798 115.85109 32.344036 115.801581 C 35.238211 115.752073 38.307729 115.67781 41.552588 115.576731 C 44.795385 115.477714 48.089753 115.353943 51.433629 115.203355 C 54.779568 115.052768 57.873839 114.904243 60.718507 114.753655 C 63.563174 114.60513 65.982894 114.454542 67.979731 114.303954 C 69.976567 114.155429 71.323607 113.980087 72.022912 113.779991 Z M 72.022912 113.779991 " stroke="#ffffff" stroke-width="23.000025" stroke-opacity="1" stroke-miterlimit="4"/><g fill="#000000" fill-opacity="1"><g transform="translate(338.076901, 695.602626)"><g><path d="M 136.390625 -409.4375 C 129.960938 -405.09375 122.921875 -400.414062 115.265625 -395.40625 C 107.609375 -390.394531 100 -386 92.4375 -382.21875 C 104.53125 -349.894531 115.914062 -319.460938 126.59375 -290.921875 C 137.28125 -262.378906 147.394531 -234.921875 156.9375 -208.546875 C 166.488281 -182.179688 175.328125 -156.566406 183.453125 -131.703125 C 191.578125 -106.847656 199.140625 -82.132812 206.140625 -57.5625 C 214.640625 -72.113281 223.519531 -87.707031 232.78125 -104.34375 C 242.050781 -120.976562 251.03125 -138.082031 259.71875 -155.65625 C 268.414062 -173.238281 276.6875 -191.148438 284.53125 -209.390625 C 292.382812 -227.640625 299.238281 -245.644531 305.09375 -263.40625 C 310.957031 -281.175781 315.585938 -298.519531 318.984375 -315.4375 C 322.390625 -332.363281 324.09375 -348.382812 324.09375 -363.5 C 324.09375 -365.582031 324 -367.613281 323.8125 -369.59375 C 323.625 -371.582031 323.335938 -373.425781 322.953125 -375.125 C 320.304688 -375.507812 317.566406 -375.703125 314.734375 -375.703125 C 311.898438 -375.703125 308.972656 -375.703125 305.953125 -375.703125 C 300.648438 -375.703125 295.398438 -375.554688 290.203125 -375.265625 C 285.003906 -374.984375 280.234375 -374.5625 275.890625 -374 C 284.585938 -381.9375 292.382812 -387.984375 299.28125 -392.140625 C 306.175781 -396.296875 312.082031 -399.414062 317 -401.5 C 322.675781 -403.769531 327.6875 -405.09375 332.03125 -405.46875 C 335.625 -405.46875 340.160156 -405.515625 345.640625 -405.609375 C 351.117188 -405.703125 356.929688 -405.84375 363.078125 -406.03125 C 369.222656 -406.226562 375.460938 -406.46875 381.796875 -406.75 C 388.128906 -407.03125 393.941406 -407.3125 399.234375 -407.59375 C 404.523438 -407.875 409.109375 -408.15625 412.984375 -408.4375 C 416.859375 -408.726562 419.363281 -409.0625 420.5 -409.4375 C 416.53125 -406.601562 412.226562 -403.625 407.59375 -400.5 C 402.96875 -397.382812 398.242188 -394.363281 393.421875 -391.4375 C 388.597656 -388.507812 383.726562 -385.769531 378.8125 -383.21875 C 373.90625 -380.664062 369.179688 -378.535156 364.640625 -376.828125 C 362.554688 -358.492188 358.300781 -338.929688 351.875 -318.140625 C 345.445312 -297.347656 337.976562 -276.457031 329.46875 -255.46875 C 320.96875 -234.488281 311.894531 -214.117188 302.25 -194.359375 C 292.613281 -174.609375 283.445312 -156.695312 274.75 -140.625 C 266.0625 -124.5625 258.359375 -110.953125 251.640625 -99.796875 C 244.929688 -88.648438 240.253906 -81.28125 237.609375 -77.6875 C 234.398438 -72.96875 231.09375 -67.957031 227.6875 -62.65625 C 224.851562 -58.125 221.78125 -52.925781 218.46875 -47.0625 C 215.164062 -41.207031 212.191406 -35.160156 209.546875 -28.921875 L 171.828125 8.796875 C 168.046875 -2.929688 164.878906 -12.859375 162.328125 -20.984375 C 159.773438 -29.109375 157.457031 -36.242188 155.375 -42.390625 C 153.300781 -48.535156 151.410156 -54.207031 149.703125 -59.40625 C 148.003906 -64.601562 146.113281 -70.128906 144.03125 -75.984375 C 141.957031 -81.847656 139.597656 -88.414062 136.953125 -95.6875 C 134.304688 -102.96875 131.046875 -111.898438 127.171875 -122.484375 C 123.296875 -133.078125 118.613281 -145.601562 113.125 -160.0625 C 107.644531 -174.519531 101.125 -191.910156 93.5625 -212.234375 C 86.007812 -232.554688 77.222656 -256.085938 67.203125 -282.828125 C 57.179688 -309.578125 45.648438 -340.535156 32.609375 -375.703125 L 21.546875 -375.703125 C 16.253906 -375.703125 10.960938 -375.554688 5.671875 -375.265625 C 0.378906 -374.984375 -4.441406 -374.5625 -8.796875 -374 C 0.0859375 -381.9375 7.976562 -387.984375 14.875 -392.140625 C 21.78125 -396.296875 27.691406 -399.414062 32.609375 -401.5 C 38.273438 -403.769531 43.285156 -405.09375 47.640625 -405.46875 C 51.222656 -405.46875 55.753906 -405.515625 61.234375 -405.609375 C 66.722656 -405.703125 72.539062 -405.84375 78.6875 -406.03125 C 84.832031 -406.226562 91.066406 -406.46875 97.390625 -406.75 C 103.722656 -407.03125 109.582031 -407.3125 114.96875 -407.59375 C 120.363281 -407.875 124.953125 -408.15625 128.734375 -408.4375 C 132.515625 -408.726562 135.066406 -409.0625 136.390625 -409.4375 Z M 136.390625 -409.4375 "/></g></g></g></svg>