<svg xmlns="http://www.w3.org/2000/svg" xmlns:xlink="http://www.w3.org/1999/xlink" width="500" zoomAndPan="magnify" viewBox="0 0 375 374.999991" height="500" preserveAspectRatio="xMidYMid meet" version="1.0"><defs><g/><clipPath id="c69a519b82"><path d="M 173 79.683594 L 254.972656 79.683594 L 254.972656 186.933594 L 173 186.933594 Z M 173 79.683594 " clip-rule="nonzero"/></clipPath><clipPath id="b9b42154e0"><path d="M 146 159 L 174 159 L 174 186.933594 L 146 186.933594 Z M 146 159 " clip-rule="nonzero"/></clipPath></defs><g fill="#000000" fill-opacity="1"><g transform="translate(103.193992, 226.117968)"><g><path d="M 21.890625 -1.421875 C 21.941406 -1.234375 21.96875 -1.09375 21.96875 -1 C 21.96875 -0.6875 21.859375 -0.4375 21.640625 -0.25 C 21.429688 -0.0625 21.1875 0.03125 20.90625 0.03125 C 20.664062 0.03125 20.457031 -0.03125 20.28125 -0.15625 C 20.101562 -0.289062 19.96875 -0.460938 19.875 -0.671875 L 17.203125 -7.1875 L 5.65625 -7.1875 L 3.015625 -0.671875 C 2.828125 -0.203125 2.507812 0.03125 2.0625 0.03125 C 1.726562 0.03125 1.476562 -0.0507812 1.3125 -0.21875 C 1.144531 -0.382812 1.050781 -0.609375 1.03125 -0.890625 L 1.03125 -1 C 1.03125 -1.132812 1.039062 -1.238281 1.0625 -1.3125 L 10.453125 -24.28125 C 10.640625 -24.75 10.992188 -24.984375 11.515625 -24.984375 C 11.753906 -24.984375 11.960938 -24.914062 12.140625 -24.78125 C 12.316406 -24.65625 12.453125 -24.488281 12.546875 -24.28125 Z M 6.46875 -9.28125 L 16.34375 -9.28125 L 11.375 -21.4375 Z M 6.46875 -9.28125 "/></g></g></g><g fill="#000000" fill-opacity="1"><g transform="translate(127.754722, 226.117968)"><g><path d="M 5.578125 -1.109375 C 5.554688 -0.796875 5.4375 -0.53125 5.21875 -0.3125 C 5.007812 -0.101562 4.75 0 4.4375 0 C 4.113281 0 3.847656 -0.0976562 3.640625 -0.296875 C 3.441406 -0.503906 3.34375 -0.773438 3.34375 -1.109375 L 3.34375 -23.78125 C 3.34375 -24.113281 3.445312 -24.378906 3.65625 -24.578125 C 3.875 -24.773438 4.148438 -24.875 4.484375 -24.875 C 4.785156 -24.875 5.039062 -24.769531 5.25 -24.5625 C 5.46875 -24.351562 5.578125 -24.09375 5.578125 -23.78125 Z M 5.578125 -1.109375 "/></g></g></g><g fill="#000000" fill-opacity="1"><g transform="translate(138.204866, 226.117968)"><g/></g></g><g fill="#000000" fill-opacity="1"><g transform="translate(149.472506, 226.117968)"><g><path d="M 21.328125 -24.921875 C 21.640625 -24.921875 21.898438 -24.816406 22.109375 -24.609375 C 22.328125 -24.410156 22.4375 -24.179688 22.4375 -23.921875 C 22.4375 -23.753906 22.398438 -23.578125 22.328125 -23.390625 L 12.828125 -0.703125 C 12.734375 -0.492188 12.59375 -0.320312 12.40625 -0.1875 C 12.21875 -0.0625 12.015625 0 11.796875 0 C 11.585938 0 11.394531 -0.0546875 11.21875 -0.171875 C 11.039062 -0.296875 10.90625 -0.460938 10.8125 -0.671875 L 1.34375 -23.3125 C 1.28125 -23.457031 1.25 -23.648438 1.25 -23.890625 C 1.25 -24.191406 1.351562 -24.4375 1.5625 -24.625 C 1.78125 -24.820312 2.019531 -24.921875 2.28125 -24.921875 C 2.769531 -24.921875 3.125 -24.660156 3.34375 -24.140625 L 11.90625 -3.65625 L 20.328125 -24.203125 C 20.453125 -24.421875 20.601562 -24.59375 20.78125 -24.71875 C 20.957031 -24.851562 21.140625 -24.921875 21.328125 -24.921875 Z M 21.328125 -24.921875 "/></g></g></g><g fill="#000000" fill-opacity="1"><g transform="translate(174.673007, 226.117968)"><g><path d="M 5.578125 -1.109375 C 5.554688 -0.796875 5.4375 -0.53125 5.21875 -0.3125 C 5.007812 -0.101562 4.75 0 4.4375 0 C 4.113281 0 3.847656 -0.0976562 3.640625 -0.296875 C 3.441406 -0.503906 3.34375 -0.773438 3.34375 -1.109375 L 3.34375 -23.78125 C 3.34375 -24.113281 3.445312 -24.378906 3.65625 -24.578125 C 3.875 -24.773438 4.148438 -24.875 4.484375 -24.875 C 4.785156 -24.875 5.039062 -24.769531 5.25 -24.5625 C 5.46875 -24.351562 5.578125 -24.09375 5.578125 -23.78125 Z M 5.578125 -1.109375 "/></g></g></g><g fill="#000000" fill-opacity="1"><g transform="translate(185.12315, 226.117968)"><g><path d="M 10.0625 0.359375 C 8.351562 0.359375 6.835938 0.078125 5.515625 -0.484375 C 4.203125 -1.054688 2.929688 -1.945312 1.703125 -3.15625 C 1.421875 -3.394531 1.28125 -3.679688 1.28125 -4.015625 C 1.28125 -4.296875 1.390625 -4.554688 1.609375 -4.796875 C 1.835938 -5.035156 2.09375 -5.15625 2.375 -5.15625 C 2.664062 -5.15625 2.925781 -5.035156 3.15625 -4.796875 C 5.007812 -2.753906 7.320312 -1.734375 10.09375 -1.734375 C 11.800781 -1.734375 13.21875 -2.132812 14.34375 -2.9375 C 15.46875 -3.75 16.03125 -4.804688 16.03125 -6.109375 C 16.03125 -7.128906 15.75 -7.976562 15.1875 -8.65625 C 14.632812 -9.332031 13.90625 -9.882812 13 -10.3125 C 12.101562 -10.738281 10.957031 -11.175781 9.5625 -11.625 C 8.039062 -12.070312 6.765625 -12.566406 5.734375 -13.109375 C 4.703125 -13.660156 3.867188 -14.390625 3.234375 -15.296875 C 2.597656 -16.210938 2.28125 -17.367188 2.28125 -18.765625 C 2.28125 -20.023438 2.613281 -21.140625 3.28125 -22.109375 C 3.957031 -23.078125 4.90625 -23.835938 6.125 -24.390625 C 7.351562 -24.953125 8.757812 -25.234375 10.34375 -25.234375 C 11.789062 -25.234375 13.144531 -24.988281 14.40625 -24.5 C 15.675781 -24.019531 16.691406 -23.332031 17.453125 -22.4375 C 17.804688 -22.03125 17.984375 -21.6875 17.984375 -21.40625 C 17.984375 -21.144531 17.863281 -20.898438 17.625 -20.671875 C 17.394531 -20.441406 17.132812 -20.328125 16.84375 -20.328125 C 16.613281 -20.328125 16.414062 -20.410156 16.25 -20.578125 C 15.601562 -21.335938 14.742188 -21.953125 13.671875 -22.421875 C 12.609375 -22.898438 11.5 -23.140625 10.34375 -23.140625 C 8.613281 -23.140625 7.203125 -22.753906 6.109375 -21.984375 C 5.023438 -21.210938 4.484375 -20.164062 4.484375 -18.84375 C 4.484375 -17.46875 5.003906 -16.410156 6.046875 -15.671875 C 7.085938 -14.941406 8.578125 -14.269531 10.515625 -13.65625 C 12.203125 -13.15625 13.578125 -12.644531 14.640625 -12.125 C 15.710938 -11.601562 16.582031 -10.859375 17.25 -9.890625 C 17.925781 -8.929688 18.265625 -7.671875 18.265625 -6.109375 C 18.265625 -4.898438 17.914062 -3.800781 17.21875 -2.8125 C 16.519531 -1.832031 15.546875 -1.054688 14.296875 -0.484375 C 13.054688 0.078125 11.644531 0.359375 10.0625 0.359375 Z M 10.0625 0.359375 "/></g></g></g><g fill="#000000" fill-opacity="1"><g transform="translate(206.66272, 226.117968)"><g><path d="M 5.578125 -1.109375 C 5.554688 -0.796875 5.4375 -0.53125 5.21875 -0.3125 C 5.007812 -0.101562 4.75 0 4.4375 0 C 4.113281 0 3.847656 -0.0976562 3.640625 -0.296875 C 3.441406 -0.503906 3.34375 -0.773438 3.34375 -1.109375 L 3.34375 -23.78125 C 3.34375 -24.113281 3.445312 -24.378906 3.65625 -24.578125 C 3.875 -24.773438 4.148438 -24.875 4.484375 -24.875 C 4.785156 -24.875 5.039062 -24.769531 5.25 -24.5625 C 5.46875 -24.351562 5.578125 -24.09375 5.578125 -23.78125 Z M 5.578125 -1.109375 "/></g></g></g><g fill="#000000" fill-opacity="1"><g transform="translate(217.112869, 226.117968)"><g><path d="M 25.515625 -12.4375 C 25.515625 -10 25.003906 -7.804688 23.984375 -5.859375 C 22.972656 -3.921875 21.566406 -2.398438 19.765625 -1.296875 C 17.960938 -0.191406 15.910156 0.359375 13.609375 0.359375 C 11.316406 0.359375 9.269531 -0.191406 7.46875 -1.296875 C 5.664062 -2.398438 4.253906 -3.921875 3.234375 -5.859375 C 2.210938 -7.804688 1.703125 -10 1.703125 -12.4375 C 1.703125 -14.90625 2.210938 -17.109375 3.234375 -19.046875 C 4.253906 -20.992188 5.664062 -22.507812 7.46875 -23.59375 C 9.269531 -24.6875 11.316406 -25.234375 13.609375 -25.234375 C 15.910156 -25.234375 17.960938 -24.6875 19.765625 -23.59375 C 21.566406 -22.507812 22.972656 -20.992188 23.984375 -19.046875 C 25.003906 -17.109375 25.515625 -14.90625 25.515625 -12.4375 Z M 23.25 -12.4375 C 23.25 -14.5 22.835938 -16.34375 22.015625 -17.96875 C 21.203125 -19.59375 20.066406 -20.851562 18.609375 -21.75 C 17.148438 -22.65625 15.484375 -23.109375 13.609375 -23.109375 C 11.742188 -23.109375 10.082031 -22.65625 8.625 -21.75 C 7.164062 -20.851562 6.023438 -19.59375 5.203125 -17.96875 C 4.390625 -16.34375 3.984375 -14.5 3.984375 -12.4375 C 3.984375 -10.375 4.390625 -8.53125 5.203125 -6.90625 C 6.023438 -5.289062 7.164062 -4.03125 8.625 -3.125 C 10.082031 -2.226562 11.742188 -1.78125 13.609375 -1.78125 C 15.484375 -1.78125 17.148438 -2.226562 18.609375 -3.125 C 20.066406 -4.03125 21.203125 -5.289062 22.015625 -6.90625 C 22.835938 -8.53125 23.25 -10.375 23.25 -12.4375 Z M 23.25 -12.4375 "/></g></g></g><g fill="#000000" fill-opacity="1"><g transform="translate(245.903203, 226.117968)"><g><path d="M 21.546875 -24.875 C 21.847656 -24.875 22.085938 -24.78125 22.265625 -24.59375 C 22.441406 -24.40625 22.53125 -24.171875 22.53125 -23.890625 L 22.53125 -1.140625 C 22.53125 -0.785156 22.421875 -0.503906 22.203125 -0.296875 C 21.992188 -0.0976562 21.738281 0 21.4375 0 C 21.269531 0 21.109375 -0.0351562 20.953125 -0.109375 C 20.796875 -0.179688 20.671875 -0.265625 20.578125 -0.359375 L 5.328125 -20.90625 L 5.328125 -0.953125 C 5.328125 -0.691406 5.226562 -0.46875 5.03125 -0.28125 C 4.832031 -0.09375 4.601562 0 4.34375 0 C 4.050781 0 3.8125 -0.09375 3.625 -0.28125 C 3.4375 -0.46875 3.34375 -0.691406 3.34375 -0.953125 L 3.34375 -23.8125 C 3.34375 -24.144531 3.441406 -24.40625 3.640625 -24.59375 C 3.847656 -24.78125 4.09375 -24.875 4.375 -24.875 C 4.75 -24.875 5.03125 -24.742188 5.21875 -24.484375 L 20.546875 -3.84375 L 20.546875 -23.890625 C 20.546875 -24.171875 20.640625 -24.40625 20.828125 -24.59375 C 21.015625 -24.78125 21.253906 -24.875 21.546875 -24.875 Z M 21.546875 -24.875 "/></g></g></g><g fill="#000000" fill-opacity="1"><g transform="translate(46.532798, 250.855494)"><g><path d="M 2.21875 -0.9375 L 3.921875 -0.9375 C 5.085938 -0.9375 5.972656 -1.253906 6.578125 -1.890625 C 7.191406 -2.535156 7.5 -3.429688 7.5 -4.578125 C 7.5 -5.722656 7.191406 -6.613281 6.578125 -7.25 C 5.972656 -7.882812 5.085938 -8.203125 3.921875 -8.203125 L 2.21875 -8.203125 Z M 3.921875 -9.234375 C 5.410156 -9.234375 6.585938 -8.816406 7.453125 -7.984375 C 8.316406 -7.148438 8.75 -6.007812 8.75 -4.5625 C 8.75 -3.125 8.316406 -2.003906 7.453125 -1.203125 C 6.585938 -0.398438 5.410156 0 3.921875 0 L 1 0 L 1 -9.234375 Z M 3.921875 -9.234375 "/></g></g></g><g fill="#000000" fill-opacity="1"><g transform="translate(58.772554, 250.855494)"><g><path d="M 5.890625 -9.234375 L 5.890625 -8.28125 L 2.21875 -8.28125 L 2.21875 -5.125 L 5.484375 -5.125 L 5.484375 -4.1875 L 2.21875 -4.1875 L 2.21875 -0.953125 L 5.890625 -0.953125 L 5.890625 0 L 1 0 L 1 -9.234375 Z M 5.890625 -9.234375 "/></g></g></g><g fill="#000000" fill-opacity="1"><g transform="translate(68.465709, 250.855494)"><g><path d="M 3.875 0 L 0.3125 -9.234375 L 1.609375 -9.234375 L 4.515625 -1.296875 L 7.453125 -9.234375 L 8.75 -9.234375 L 5.1875 0 Z M 3.875 0 "/></g></g></g><g fill="#000000" fill-opacity="1"><g transform="translate(80.492141, 250.855494)"><g><path d="M 5.890625 -9.234375 L 5.890625 -8.28125 L 2.21875 -8.28125 L 2.21875 -5.125 L 5.484375 -5.125 L 5.484375 -4.1875 L 2.21875 -4.1875 L 2.21875 -0.953125 L 5.890625 -0.953125 L 5.890625 0 L 1 0 L 1 -9.234375 Z M 5.890625 -9.234375 "/></g></g></g><g fill="#000000" fill-opacity="1"><g transform="translate(90.185296, 250.855494)"><g><path d="M 1 -9.234375 L 2.21875 -9.234375 L 2.21875 -0.9375 L 5.453125 -0.9375 L 5.453125 0 L 1 0 Z M 1 -9.234375 "/></g></g></g><g fill="#000000" fill-opacity="1"><g transform="translate(98.865141, 250.855494)"><g><path d="M 7.703125 -1.984375 C 8.347656 -2.648438 8.671875 -3.53125 8.671875 -4.625 C 8.671875 -5.71875 8.347656 -6.59375 7.703125 -7.25 C 7.054688 -7.914062 6.226562 -8.25 5.21875 -8.25 C 4.207031 -8.25 3.375 -7.914062 2.71875 -7.25 C 2.070312 -6.59375 1.75 -5.71875 1.75 -4.625 C 1.75 -3.53125 2.078125 -2.648438 2.734375 -1.984375 C 3.390625 -1.316406 4.21875 -0.984375 5.21875 -0.984375 C 6.226562 -0.984375 7.054688 -1.316406 7.703125 -1.984375 Z M 5.21875 0.09375 C 3.894531 0.09375 2.78125 -0.347656 1.875 -1.234375 C 0.96875 -2.128906 0.515625 -3.257812 0.515625 -4.625 C 0.515625 -5.988281 0.96875 -7.113281 1.875 -8 C 2.78125 -8.882812 3.894531 -9.328125 5.21875 -9.328125 C 6.539062 -9.328125 7.65625 -8.882812 8.5625 -8 C 9.46875 -7.113281 9.921875 -5.988281 9.921875 -4.625 C 9.921875 -3.257812 9.46875 -2.128906 8.5625 -1.234375 C 7.65625 -0.347656 6.539062 0.09375 5.21875 0.09375 Z M 5.21875 0.09375 "/></g></g></g><g fill="#000000" fill-opacity="1"><g transform="translate(112.251541, 250.855494)"><g><path d="M 4 -9.234375 C 5.039062 -9.234375 5.832031 -8.976562 6.375 -8.46875 C 6.925781 -7.96875 7.203125 -7.320312 7.203125 -6.53125 C 7.203125 -5.738281 6.9375 -5.085938 6.40625 -4.578125 C 5.875 -4.066406 5.070312 -3.8125 4 -3.8125 L 2.21875 -3.8125 L 2.21875 0 L 1 0 L 1 -9.234375 Z M 2.21875 -4.765625 L 4 -4.765625 C 4.664062 -4.765625 5.160156 -4.914062 5.484375 -5.21875 C 5.804688 -5.53125 5.96875 -5.960938 5.96875 -6.515625 C 5.96875 -7.679688 5.3125 -8.265625 4 -8.265625 L 2.21875 -8.265625 Z M 2.21875 -4.765625 "/></g></g></g><g fill="#000000" fill-opacity="1"><g transform="translate(122.918007, 250.855494)"><g><path d="M 1 0 L 1 -9.234375 L 2.21875 -9.234375 L 2.21875 0 Z M 1 0 "/></g></g></g><g fill="#000000" fill-opacity="1"><g transform="translate(129.091237, 250.855494)"><g><path d="M 7.09375 -9.234375 L 8.296875 -9.234375 L 8.296875 0 L 7.09375 0 L 2.21875 -7.328125 L 2.21875 0 L 1 0 L 1 -9.234375 L 2.21875 -9.234375 L 7.09375 -1.90625 Z M 7.09375 -9.234375 "/></g></g></g><g fill="#000000" fill-opacity="1"><g transform="translate(141.357667, 250.855494)"><g><path d="M 5.140625 0.078125 C 3.867188 0.078125 2.78125 -0.363281 1.875 -1.25 C 0.96875 -2.132812 0.515625 -3.257812 0.515625 -4.625 C 0.515625 -5.988281 0.96875 -7.113281 1.875 -8 C 2.78125 -8.882812 3.894531 -9.328125 5.21875 -9.328125 C 6.175781 -9.328125 7.03125 -9.097656 7.78125 -8.640625 C 8.539062 -8.191406 9.097656 -7.539062 9.453125 -6.6875 L 7.984375 -6.6875 C 7.429688 -7.726562 6.507812 -8.25 5.21875 -8.25 C 4.21875 -8.25 3.390625 -7.914062 2.734375 -7.25 C 2.085938 -6.59375 1.765625 -5.71875 1.765625 -4.625 C 1.765625 -3.53125 2.085938 -2.648438 2.734375 -1.984375 C 3.390625 -1.316406 4.203125 -0.984375 5.171875 -0.984375 C 6.148438 -0.984375 6.929688 -1.257812 7.515625 -1.8125 C 8.109375 -2.363281 8.457031 -3.109375 8.5625 -4.046875 L 4.75 -4.046875 L 4.75 -5.015625 L 9.84375 -5.015625 L 9.84375 -4.046875 C 9.71875 -2.859375 9.222656 -1.875 8.359375 -1.09375 C 7.492188 -0.3125 6.421875 0.078125 5.140625 0.078125 Z M 5.140625 0.078125 "/></g></g></g><g fill="#000000" fill-opacity="1"><g transform="translate(154.677397, 250.855494)"><g/></g></g><g fill="#000000" fill-opacity="1"><g transform="translate(161.637274, 250.855494)"><g><path d="M 0.59375 -8.265625 L 0.59375 -9.234375 L 6.671875 -9.234375 L 6.671875 -8.265625 L 4.234375 -8.265625 L 4.234375 0 L 3.03125 0 L 3.03125 -8.265625 Z M 0.59375 -8.265625 "/></g></g></g><g fill="#000000" fill-opacity="1"><g transform="translate(171.877084, 250.855494)"><g><path d="M 6.859375 -9.234375 L 8.09375 -9.234375 L 8.09375 0 L 6.859375 0 L 6.859375 -4.171875 L 2.21875 -4.171875 L 2.21875 0 L 1 0 L 1 -9.234375 L 2.21875 -9.234375 L 2.21875 -5.125 L 6.859375 -5.125 Z M 6.859375 -9.234375 "/></g></g></g><g fill="#000000" fill-opacity="1"><g transform="translate(183.930176, 250.855494)"><g><path d="M 5.890625 -9.234375 L 5.890625 -8.28125 L 2.21875 -8.28125 L 2.21875 -5.125 L 5.484375 -5.125 L 5.484375 -4.1875 L 2.21875 -4.1875 L 2.21875 -0.953125 L 5.890625 -0.953125 L 5.890625 0 L 1 0 L 1 -9.234375 Z M 5.890625 -9.234375 "/></g></g></g><g fill="#000000" fill-opacity="1"><g transform="translate(193.623328, 250.855494)"><g/></g></g><g fill="#000000" fill-opacity="1"><g transform="translate(200.583205, 250.855494)"><g><path d="M 11.46875 -9.234375 L 12.734375 -9.234375 L 9.9375 0 L 8.578125 0 L 6.5 -7.46875 L 4.28125 0 L 2.9375 0.015625 L 0.3125 -9.234375 L 1.59375 -9.234375 L 3.65625 -1.390625 L 5.890625 -9.234375 L 7.21875 -9.234375 L 9.296875 -1.40625 Z M 11.46875 -9.234375 "/></g></g></g><g fill="#000000" fill-opacity="1"><g transform="translate(216.609546, 250.855494)"><g><path d="M 7.703125 -1.984375 C 8.347656 -2.648438 8.671875 -3.53125 8.671875 -4.625 C 8.671875 -5.71875 8.347656 -6.59375 7.703125 -7.25 C 7.054688 -7.914062 6.226562 -8.25 5.21875 -8.25 C 4.207031 -8.25 3.375 -7.914062 2.71875 -7.25 C 2.070312 -6.59375 1.75 -5.71875 1.75 -4.625 C 1.75 -3.53125 2.078125 -2.648438 2.734375 -1.984375 C 3.390625 -1.316406 4.21875 -0.984375 5.21875 -0.984375 C 6.226562 -0.984375 7.054688 -1.316406 7.703125 -1.984375 Z M 5.21875 0.09375 C 3.894531 0.09375 2.78125 -0.347656 1.875 -1.234375 C 0.96875 -2.128906 0.515625 -3.257812 0.515625 -4.625 C 0.515625 -5.988281 0.96875 -7.113281 1.875 -8 C 2.78125 -8.882812 3.894531 -9.328125 5.21875 -9.328125 C 6.539062 -9.328125 7.65625 -8.882812 8.5625 -8 C 9.46875 -7.113281 9.921875 -5.988281 9.921875 -4.625 C 9.921875 -3.257812 9.46875 -2.128906 8.5625 -1.234375 C 7.65625 -0.347656 6.539062 0.09375 5.21875 0.09375 Z M 5.21875 0.09375 "/></g></g></g><g fill="#000000" fill-opacity="1"><g transform="translate(229.995942, 250.855494)"><g><path d="M 2.21875 -3.8125 L 2.21875 0 L 1 0 L 1 -9.234375 L 4 -9.234375 C 5.039062 -9.234375 5.832031 -8.976562 6.375 -8.46875 C 6.925781 -7.96875 7.203125 -7.347656 7.203125 -6.609375 C 7.203125 -5.878906 7 -5.269531 6.59375 -4.78125 C 6.195312 -4.289062 5.597656 -3.984375 4.796875 -3.859375 L 7.34375 0 L 5.828125 0 L 3.40625 -3.8125 Z M 2.21875 -8.265625 L 2.21875 -4.765625 L 4 -4.765625 C 4.664062 -4.765625 5.160156 -4.914062 5.484375 -5.21875 C 5.804688 -5.53125 5.96875 -5.960938 5.96875 -6.515625 C 5.96875 -7.679688 5.3125 -8.265625 4 -8.265625 Z M 2.21875 -8.265625 "/></g></g></g><g fill="#000000" fill-opacity="1"><g transform="translate(241.182395, 250.855494)"><g><path d="M 1 -9.234375 L 2.21875 -9.234375 L 2.21875 -0.9375 L 5.453125 -0.9375 L 5.453125 0 L 1 0 Z M 1 -9.234375 "/></g></g></g><g fill="#000000" fill-opacity="1"><g transform="translate(249.862237, 250.855494)"><g><path d="M 2.21875 -0.9375 L 3.921875 -0.9375 C 5.085938 -0.9375 5.972656 -1.253906 6.578125 -1.890625 C 7.191406 -2.535156 7.5 -3.429688 7.5 -4.578125 C 7.5 -5.722656 7.191406 -6.613281 6.578125 -7.25 C 5.972656 -7.882812 5.085938 -8.203125 3.921875 -8.203125 L 2.21875 -8.203125 Z M 3.921875 -9.234375 C 5.410156 -9.234375 6.585938 -8.816406 7.453125 -7.984375 C 8.316406 -7.148438 8.75 -6.007812 8.75 -4.5625 C 8.75 -3.125 8.316406 -2.003906 7.453125 -1.203125 C 6.585938 -0.398438 5.410156 0 3.921875 0 L 1 0 L 1 -9.234375 Z M 3.921875 -9.234375 "/></g></g></g><g fill="#000000" fill-opacity="1"><g transform="translate(262.102003, 250.855494)"><g><path d="M 1.984375 -6.765625 C 1.984375 -6.429688 2.078125 -6.148438 2.265625 -5.921875 C 2.453125 -5.703125 2.691406 -5.539062 2.984375 -5.4375 C 3.273438 -5.332031 3.597656 -5.238281 3.953125 -5.15625 C 4.316406 -5.070312 4.675781 -4.976562 5.03125 -4.875 C 5.394531 -4.78125 5.722656 -4.648438 6.015625 -4.484375 C 6.316406 -4.328125 6.5625 -4.085938 6.75 -3.765625 C 6.9375 -3.453125 7.03125 -3.054688 7.03125 -2.578125 C 7.03125 -1.859375 6.753906 -1.234375 6.203125 -0.703125 C 5.648438 -0.171875 4.90625 0.09375 3.96875 0.09375 C 3.03125 0.09375 2.265625 -0.117188 1.671875 -0.546875 C 1.085938 -0.984375 0.796875 -1.570312 0.796875 -2.3125 L 2.09375 -2.3125 C 2.125 -1.882812 2.285156 -1.539062 2.578125 -1.28125 C 2.878906 -1.03125 3.320312 -0.90625 3.90625 -0.90625 C 4.5 -0.90625 4.96875 -1.054688 5.3125 -1.359375 C 5.664062 -1.660156 5.84375 -2.015625 5.84375 -2.421875 C 5.84375 -2.828125 5.75 -3.132812 5.5625 -3.34375 C 5.375 -3.5625 5.128906 -3.722656 4.828125 -3.828125 C 4.535156 -3.941406 4.207031 -4.035156 3.84375 -4.109375 C 3.488281 -4.179688 3.128906 -4.269531 2.765625 -4.375 C 2.410156 -4.488281 2.085938 -4.625 1.796875 -4.78125 C 1.503906 -4.945312 1.265625 -5.191406 1.078125 -5.515625 C 0.890625 -5.847656 0.796875 -6.253906 0.796875 -6.734375 C 0.796875 -7.515625 1.070312 -8.140625 1.625 -8.609375 C 2.1875 -9.085938 2.910156 -9.328125 3.796875 -9.328125 C 4.691406 -9.328125 5.40625 -9.117188 5.9375 -8.703125 C 6.46875 -8.296875 6.769531 -7.726562 6.84375 -7 L 5.5 -7 C 5.46875 -7.363281 5.296875 -7.671875 4.984375 -7.921875 C 4.679688 -8.179688 4.269531 -8.3125 3.75 -8.3125 C 3.226562 -8.3125 2.800781 -8.179688 2.46875 -7.921875 C 2.144531 -7.660156 1.984375 -7.273438 1.984375 -6.765625 Z M 1.984375 -6.765625 "/></g></g></g><g fill="#000000" fill-opacity="1"><g transform="translate(272.88847, 250.855494)"><g/></g></g><g fill="#000000" fill-opacity="1"><g transform="translate(279.84836, 250.855494)"><g><path d="M 10.421875 -9.234375 L 10.421875 0 L 9.203125 0 L 9.203125 -6.734375 L 6.109375 0 L 5.3125 0 L 2.21875 -6.734375 L 2.21875 0 L 1 0 L 1 -9.234375 L 2.234375 -9.234375 L 5.71875 -1.671875 L 9.1875 -9.234375 Z M 10.421875 -9.234375 "/></g></g></g><g fill="#000000" fill-opacity="1"><g transform="translate(294.234741, 250.855494)"><g><path d="M 7.703125 -1.984375 C 8.347656 -2.648438 8.671875 -3.53125 8.671875 -4.625 C 8.671875 -5.71875 8.347656 -6.59375 7.703125 -7.25 C 7.054688 -7.914062 6.226562 -8.25 5.21875 -8.25 C 4.207031 -8.25 3.375 -7.914062 2.71875 -7.25 C 2.070312 -6.59375 1.75 -5.71875 1.75 -4.625 C 1.75 -3.53125 2.078125 -2.648438 2.734375 -1.984375 C 3.390625 -1.316406 4.21875 -0.984375 5.21875 -0.984375 C 6.226562 -0.984375 7.054688 -1.316406 7.703125 -1.984375 Z M 5.21875 0.09375 C 3.894531 0.09375 2.78125 -0.347656 1.875 -1.234375 C 0.96875 -2.128906 0.515625 -3.257812 0.515625 -4.625 C 0.515625 -5.988281 0.96875 -7.113281 1.875 -8 C 2.78125 -8.882812 3.894531 -9.328125 5.21875 -9.328125 C 6.539062 -9.328125 7.65625 -8.882812 8.5625 -8 C 9.46875 -7.113281 9.921875 -5.988281 9.921875 -4.625 C 9.921875 -3.257812 9.46875 -2.128906 8.5625 -1.234375 C 7.65625 -0.347656 6.539062 0.09375 5.21875 0.09375 Z M 5.21875 0.09375 "/></g></g></g><g fill="#000000" fill-opacity="1"><g transform="translate(307.621138, 250.855494)"><g><path d="M 1.984375 -6.765625 C 1.984375 -6.429688 2.078125 -6.148438 2.265625 -5.921875 C 2.453125 -5.703125 2.691406 -5.539062 2.984375 -5.4375 C 3.273438 -5.332031 3.597656 -5.238281 3.953125 -5.15625 C 4.316406 -5.070312 4.675781 -4.976562 5.03125 -4.875 C 5.394531 -4.78125 5.722656 -4.648438 6.015625 -4.484375 C 6.316406 -4.328125 6.5625 -4.085938 6.75 -3.765625 C 6.9375 -3.453125 7.03125 -3.054688 7.03125 -2.578125 C 7.03125 -1.859375 6.753906 -1.234375 6.203125 -0.703125 C 5.648438 -0.171875 4.90625 0.09375 3.96875 0.09375 C 3.03125 0.09375 2.265625 -0.117188 1.671875 -0.546875 C 1.085938 -0.984375 0.796875 -1.570312 0.796875 -2.3125 L 2.09375 -2.3125 C 2.125 -1.882812 2.285156 -1.539062 2.578125 -1.28125 C 2.878906 -1.03125 3.320312 -0.90625 3.90625 -0.90625 C 4.5 -0.90625 4.96875 -1.054688 5.3125 -1.359375 C 5.664062 -1.660156 5.84375 -2.015625 5.84375 -2.421875 C 5.84375 -2.828125 5.75 -3.132812 5.5625 -3.34375 C 5.375 -3.5625 5.128906 -3.722656 4.828125 -3.828125 C 4.535156 -3.941406 4.207031 -4.035156 3.84375 -4.109375 C 3.488281 -4.179688 3.128906 -4.269531 2.765625 -4.375 C 2.410156 -4.488281 2.085938 -4.625 1.796875 -4.78125 C 1.503906 -4.945312 1.265625 -5.191406 1.078125 -5.515625 C 0.890625 -5.847656 0.796875 -6.253906 0.796875 -6.734375 C 0.796875 -7.515625 1.070312 -8.140625 1.625 -8.609375 C 2.1875 -9.085938 2.910156 -9.328125 3.796875 -9.328125 C 4.691406 -9.328125 5.40625 -9.117188 5.9375 -8.703125 C 6.46875 -8.296875 6.769531 -7.726562 6.84375 -7 L 5.5 -7 C 5.46875 -7.363281 5.296875 -7.671875 4.984375 -7.921875 C 4.679688 -8.179688 4.269531 -8.3125 3.75 -8.3125 C 3.226562 -8.3125 2.800781 -8.179688 2.46875 -7.921875 C 2.144531 -7.660156 1.984375 -7.273438 1.984375 -6.765625 Z M 1.984375 -6.765625 "/></g></g></g><g fill="#000000" fill-opacity="1"><g transform="translate(318.407605, 250.855494)"><g><path d="M 0.59375 -8.265625 L 0.59375 -9.234375 L 6.671875 -9.234375 L 6.671875 -8.265625 L 4.234375 -8.265625 L 4.234375 0 L 3.03125 0 L 3.03125 -8.265625 Z M 0.59375 -8.265625 "/></g></g></g><g fill="#000000" fill-opacity="1"><g transform="translate(85.750544, 269.188358)"><g><path d="M 7.375 0 L 6.65625 -2.03125 L 2.546875 -2.03125 L 1.828125 0 L 0.59375 0 L 3.9375 -9.234375 L 5.28125 -9.234375 L 8.625 0 Z M 2.890625 -2.984375 L 6.296875 -2.984375 L 4.59375 -7.75 Z M 2.890625 -2.984375 "/></g></g></g><g fill="#000000" fill-opacity="1"><g transform="translate(97.923634, 269.188358)"><g><path d="M 1 0 L 1 -9.234375 L 6.203125 -9.234375 L 6.203125 -8.265625 L 2.21875 -8.265625 L 2.21875 -5.125 L 5.359375 -5.125 L 5.359375 -4.171875 L 2.21875 -4.171875 L 2.21875 0 Z M 1 0 "/></g></g></g><g fill="#000000" fill-opacity="1"><g transform="translate(107.41679, 269.188358)"><g><path d="M 1 0 L 1 -9.234375 L 6.203125 -9.234375 L 6.203125 -8.265625 L 2.21875 -8.265625 L 2.21875 -5.125 L 5.359375 -5.125 L 5.359375 -4.171875 L 2.21875 -4.171875 L 2.21875 0 Z M 1 0 "/></g></g></g><g fill="#000000" fill-opacity="1"><g transform="translate(116.909946, 269.188358)"><g><path d="M 7.703125 -1.984375 C 8.347656 -2.648438 8.671875 -3.53125 8.671875 -4.625 C 8.671875 -5.71875 8.347656 -6.59375 7.703125 -7.25 C 7.054688 -7.914062 6.226562 -8.25 5.21875 -8.25 C 4.207031 -8.25 3.375 -7.914062 2.71875 -7.25 C 2.070312 -6.59375 1.75 -5.71875 1.75 -4.625 C 1.75 -3.53125 2.078125 -2.648438 2.734375 -1.984375 C 3.390625 -1.316406 4.21875 -0.984375 5.21875 -0.984375 C 6.226562 -0.984375 7.054688 -1.316406 7.703125 -1.984375 Z M 5.21875 0.09375 C 3.894531 0.09375 2.78125 -0.347656 1.875 -1.234375 C 0.96875 -2.128906 0.515625 -3.257812 0.515625 -4.625 C 0.515625 -5.988281 0.96875 -7.113281 1.875 -8 C 2.78125 -8.882812 3.894531 -9.328125 5.21875 -9.328125 C 6.539062 -9.328125 7.65625 -8.882812 8.5625 -8 C 9.46875 -7.113281 9.921875 -5.988281 9.921875 -4.625 C 9.921875 -3.257812 9.46875 -2.128906 8.5625 -1.234375 C 7.65625 -0.347656 6.539062 0.09375 5.21875 0.09375 Z M 5.21875 0.09375 "/></g></g></g><g fill="#000000" fill-opacity="1"><g transform="translate(130.296345, 269.188358)"><g><path d="M 2.21875 -3.8125 L 2.21875 0 L 1 0 L 1 -9.234375 L 4 -9.234375 C 5.039062 -9.234375 5.832031 -8.976562 6.375 -8.46875 C 6.925781 -7.96875 7.203125 -7.347656 7.203125 -6.609375 C 7.203125 -5.878906 7 -5.269531 6.59375 -4.78125 C 6.195312 -4.289062 5.597656 -3.984375 4.796875 -3.859375 L 7.34375 0 L 5.828125 0 L 3.40625 -3.8125 Z M 2.21875 -8.265625 L 2.21875 -4.765625 L 4 -4.765625 C 4.664062 -4.765625 5.160156 -4.914062 5.484375 -5.21875 C 5.804688 -5.53125 5.96875 -5.960938 5.96875 -6.515625 C 5.96875 -7.679688 5.3125 -8.265625 4 -8.265625 Z M 2.21875 -8.265625 "/></g></g></g><g fill="#000000" fill-opacity="1"><g transform="translate(141.482799, 269.188358)"><g><path d="M 2.21875 -0.9375 L 3.921875 -0.9375 C 5.085938 -0.9375 5.972656 -1.253906 6.578125 -1.890625 C 7.191406 -2.535156 7.5 -3.429688 7.5 -4.578125 C 7.5 -5.722656 7.191406 -6.613281 6.578125 -7.25 C 5.972656 -7.882812 5.085938 -8.203125 3.921875 -8.203125 L 2.21875 -8.203125 Z M 3.921875 -9.234375 C 5.410156 -9.234375 6.585938 -8.816406 7.453125 -7.984375 C 8.316406 -7.148438 8.75 -6.007812 8.75 -4.5625 C 8.75 -3.125 8.316406 -2.003906 7.453125 -1.203125 C 6.585938 -0.398438 5.410156 0 3.921875 0 L 1 0 L 1 -9.234375 Z M 3.921875 -9.234375 "/></g></g></g><g fill="#000000" fill-opacity="1"><g transform="translate(153.722552, 269.188358)"><g><path d="M 7.375 0 L 6.65625 -2.03125 L 2.546875 -2.03125 L 1.828125 0 L 0.59375 0 L 3.9375 -9.234375 L 5.28125 -9.234375 L 8.625 0 Z M 2.890625 -2.984375 L 6.296875 -2.984375 L 4.59375 -7.75 Z M 2.890625 -2.984375 "/></g></g></g><g fill="#000000" fill-opacity="1"><g transform="translate(165.895639, 269.188358)"><g><path d="M 1 -9.234375 L 4.3125 -9.234375 C 5.25 -9.234375 5.972656 -9.003906 6.484375 -8.546875 C 7.003906 -8.085938 7.265625 -7.5 7.265625 -6.78125 C 7.265625 -5.75 6.671875 -5.070312 5.484375 -4.75 C 6.085938 -4.644531 6.570312 -4.375 6.9375 -3.9375 C 7.300781 -3.507812 7.484375 -3.007812 7.484375 -2.4375 C 7.484375 -1.738281 7.207031 -1.15625 6.65625 -0.6875 C 6.113281 -0.226562 5.382812 0 4.46875 0 L 1 0 Z M 2.21875 -8.265625 L 2.21875 -5.21875 L 4.25 -5.21875 C 4.8125 -5.21875 5.25 -5.351562 5.5625 -5.625 C 5.875 -5.894531 6.03125 -6.265625 6.03125 -6.734375 C 6.03125 -7.203125 5.875 -7.570312 5.5625 -7.84375 C 5.25 -8.125 4.8125 -8.265625 4.25 -8.265625 Z M 2.21875 -0.953125 L 4.390625 -0.953125 C 4.984375 -0.953125 5.445312 -1.097656 5.78125 -1.390625 C 6.113281 -1.691406 6.28125 -2.097656 6.28125 -2.609375 C 6.28125 -3.117188 6.097656 -3.519531 5.734375 -3.8125 C 5.378906 -4.101562 4.90625 -4.25 4.3125 -4.25 L 2.21875 -4.25 Z M 2.21875 -0.953125 "/></g></g></g><g fill="#000000" fill-opacity="1"><g transform="translate(177.015426, 269.188358)"><g><path d="M 1 -9.234375 L 2.21875 -9.234375 L 2.21875 -0.9375 L 5.453125 -0.9375 L 5.453125 0 L 1 0 Z M 1 -9.234375 "/></g></g></g><g fill="#000000" fill-opacity="1"><g transform="translate(185.695268, 269.188358)"><g><path d="M 5.890625 -9.234375 L 5.890625 -8.28125 L 2.21875 -8.28125 L 2.21875 -5.125 L 5.484375 -5.125 L 5.484375 -4.1875 L 2.21875 -4.1875 L 2.21875 -0.953125 L 5.890625 -0.953125 L 5.890625 0 L 1 0 L 1 -9.234375 Z M 5.890625 -9.234375 "/></g></g></g><g fill="#000000" fill-opacity="1"><g transform="translate(195.38842, 269.188358)"><g/></g></g><g fill="#000000" fill-opacity="1"><g transform="translate(202.348296, 269.188358)"><g><path d="M 7.375 0 L 6.65625 -2.03125 L 2.546875 -2.03125 L 1.828125 0 L 0.59375 0 L 3.9375 -9.234375 L 5.28125 -9.234375 L 8.625 0 Z M 2.890625 -2.984375 L 6.296875 -2.984375 L 4.59375 -7.75 Z M 2.890625 -2.984375 "/></g></g></g><g fill="#000000" fill-opacity="1"><g transform="translate(214.521383, 269.188358)"><g><path d="M 1 0 L 1 -9.234375 L 2.21875 -9.234375 L 2.21875 0 Z M 1 0 "/></g></g></g><g fill="#000000" fill-opacity="1"><g transform="translate(220.694613, 269.188358)"><g/></g></g><g fill="#000000" fill-opacity="1"><g transform="translate(227.65449, 269.188358)"><g><path d="M 3.875 0 L 0.3125 -9.234375 L 1.609375 -9.234375 L 4.515625 -1.296875 L 7.453125 -9.234375 L 8.75 -9.234375 L 5.1875 0 Z M 3.875 0 "/></g></g></g><g fill="#000000" fill-opacity="1"><g transform="translate(239.680919, 269.188358)"><g><path d="M 1 0 L 1 -9.234375 L 2.21875 -9.234375 L 2.21875 0 Z M 1 0 "/></g></g></g><g fill="#000000" fill-opacity="1"><g transform="translate(245.854149, 269.188358)"><g><path d="M 1.984375 -6.765625 C 1.984375 -6.429688 2.078125 -6.148438 2.265625 -5.921875 C 2.453125 -5.703125 2.691406 -5.539062 2.984375 -5.4375 C 3.273438 -5.332031 3.597656 -5.238281 3.953125 -5.15625 C 4.316406 -5.070312 4.675781 -4.976562 5.03125 -4.875 C 5.394531 -4.78125 5.722656 -4.648438 6.015625 -4.484375 C 6.316406 -4.328125 6.5625 -4.085938 6.75 -3.765625 C 6.9375 -3.453125 7.03125 -3.054688 7.03125 -2.578125 C 7.03125 -1.859375 6.753906 -1.234375 6.203125 -0.703125 C 5.648438 -0.171875 4.90625 0.09375 3.96875 0.09375 C 3.03125 0.09375 2.265625 -0.117188 1.671875 -0.546875 C 1.085938 -0.984375 0.796875 -1.570312 0.796875 -2.3125 L 2.09375 -2.3125 C 2.125 -1.882812 2.285156 -1.539062 2.578125 -1.28125 C 2.878906 -1.03125 3.320312 -0.90625 3.90625 -0.90625 C 4.5 -0.90625 4.96875 -1.054688 5.3125 -1.359375 C 5.664062 -1.660156 5.84375 -2.015625 5.84375 -2.421875 C 5.84375 -2.828125 5.75 -3.132812 5.5625 -3.34375 C 5.375 -3.5625 5.128906 -3.722656 4.828125 -3.828125 C 4.535156 -3.941406 4.207031 -4.035156 3.84375 -4.109375 C 3.488281 -4.179688 3.128906 -4.269531 2.765625 -4.375 C 2.410156 -4.488281 2.085938 -4.625 1.796875 -4.78125 C 1.503906 -4.945312 1.265625 -5.191406 1.078125 -5.515625 C 0.890625 -5.847656 0.796875 -6.253906 0.796875 -6.734375 C 0.796875 -7.515625 1.070312 -8.140625 1.625 -8.609375 C 2.1875 -9.085938 2.910156 -9.328125 3.796875 -9.328125 C 4.691406 -9.328125 5.40625 -9.117188 5.9375 -8.703125 C 6.46875 -8.296875 6.769531 -7.726562 6.84375 -7 L 5.5 -7 C 5.46875 -7.363281 5.296875 -7.671875 4.984375 -7.921875 C 4.679688 -8.179688 4.269531 -8.3125 3.75 -8.3125 C 3.226562 -8.3125 2.800781 -8.179688 2.46875 -7.921875 C 2.144531 -7.660156 1.984375 -7.273438 1.984375 -6.765625 Z M 1.984375 -6.765625 "/></g></g></g><g fill="#000000" fill-opacity="1"><g transform="translate(256.640603, 269.188358)"><g><path d="M 0.984375 -3.234375 L 0.984375 -9.234375 L 2.21875 -9.234375 L 2.21875 -3.234375 C 2.21875 -2.472656 2.414062 -1.898438 2.8125 -1.515625 C 3.21875 -1.140625 3.773438 -0.953125 4.484375 -0.953125 C 5.203125 -0.953125 5.765625 -1.140625 6.171875 -1.515625 C 6.578125 -1.898438 6.78125 -2.472656 6.78125 -3.234375 L 6.78125 -9.234375 L 8 -9.234375 L 8 -3.234375 C 8 -2.148438 7.664062 -1.320312 7 -0.75 C 6.34375 -0.1875 5.503906 0.09375 4.484375 0.09375 C 3.460938 0.09375 2.625 -0.1875 1.96875 -0.75 C 1.3125 -1.320312 0.984375 -2.148438 0.984375 -3.234375 Z M 0.984375 -3.234375 "/></g></g></g><g fill="#000000" fill-opacity="1"><g transform="translate(268.573701, 269.188358)"><g><path d="M 7.375 0 L 6.65625 -2.03125 L 2.546875 -2.03125 L 1.828125 0 L 0.59375 0 L 3.9375 -9.234375 L 5.28125 -9.234375 L 8.625 0 Z M 2.890625 -2.984375 L 6.296875 -2.984375 L 4.59375 -7.75 Z M 2.890625 -2.984375 "/></g></g></g><g fill="#000000" fill-opacity="1"><g transform="translate(280.746788, 269.188358)"><g><path d="M 1 -9.234375 L 2.21875 -9.234375 L 2.21875 -0.9375 L 5.453125 -0.9375 L 5.453125 0 L 1 0 Z M 1 -9.234375 "/></g></g></g><g fill="#000000" fill-opacity="1"><g transform="translate(90.984785, 287.521222)"><g><path d="M 2.21875 -0.9375 L 3.921875 -0.9375 C 5.085938 -0.9375 5.972656 -1.253906 6.578125 -1.890625 C 7.191406 -2.535156 7.5 -3.429688 7.5 -4.578125 C 7.5 -5.722656 7.191406 -6.613281 6.578125 -7.25 C 5.972656 -7.882812 5.085938 -8.203125 3.921875 -8.203125 L 2.21875 -8.203125 Z M 3.921875 -9.234375 C 5.410156 -9.234375 6.585938 -8.816406 7.453125 -7.984375 C 8.316406 -7.148438 8.75 -6.007812 8.75 -4.5625 C 8.75 -3.125 8.316406 -2.003906 7.453125 -1.203125 C 6.585938 -0.398438 5.410156 0 3.921875 0 L 1 0 L 1 -9.234375 Z M 3.921875 -9.234375 "/></g></g></g><g fill="#000000" fill-opacity="1"><g transform="translate(103.224542, 287.521222)"><g><path d="M 5.890625 -9.234375 L 5.890625 -8.28125 L 2.21875 -8.28125 L 2.21875 -5.125 L 5.484375 -5.125 L 5.484375 -4.1875 L 2.21875 -4.1875 L 2.21875 -0.953125 L 5.890625 -0.953125 L 5.890625 0 L 1 0 L 1 -9.234375 Z M 5.890625 -9.234375 "/></g></g></g><g fill="#000000" fill-opacity="1"><g transform="translate(112.917697, 287.521222)"><g><path d="M 1.984375 -6.765625 C 1.984375 -6.429688 2.078125 -6.148438 2.265625 -5.921875 C 2.453125 -5.703125 2.691406 -5.539062 2.984375 -5.4375 C 3.273438 -5.332031 3.597656 -5.238281 3.953125 -5.15625 C 4.316406 -5.070312 4.675781 -4.976562 5.03125 -4.875 C 5.394531 -4.78125 5.722656 -4.648438 6.015625 -4.484375 C 6.316406 -4.328125 6.5625 -4.085938 6.75 -3.765625 C 6.9375 -3.453125 7.03125 -3.054688 7.03125 -2.578125 C 7.03125 -1.859375 6.753906 -1.234375 6.203125 -0.703125 C 5.648438 -0.171875 4.90625 0.09375 3.96875 0.09375 C 3.03125 0.09375 2.265625 -0.117188 1.671875 -0.546875 C 1.085938 -0.984375 0.796875 -1.570312 0.796875 -2.3125 L 2.09375 -2.3125 C 2.125 -1.882812 2.285156 -1.539062 2.578125 -1.28125 C 2.878906 -1.03125 3.320312 -0.90625 3.90625 -0.90625 C 4.5 -0.90625 4.96875 -1.054688 5.3125 -1.359375 C 5.664062 -1.660156 5.84375 -2.015625 5.84375 -2.421875 C 5.84375 -2.828125 5.75 -3.132812 5.5625 -3.34375 C 5.375 -3.5625 5.128906 -3.722656 4.828125 -3.828125 C 4.535156 -3.941406 4.207031 -4.035156 3.84375 -4.109375 C 3.488281 -4.179688 3.128906 -4.269531 2.765625 -4.375 C 2.410156 -4.488281 2.085938 -4.625 1.796875 -4.78125 C 1.503906 -4.945312 1.265625 -5.191406 1.078125 -5.515625 C 0.890625 -5.847656 0.796875 -6.253906 0.796875 -6.734375 C 0.796875 -7.515625 1.070312 -8.140625 1.625 -8.609375 C 2.1875 -9.085938 2.910156 -9.328125 3.796875 -9.328125 C 4.691406 -9.328125 5.40625 -9.117188 5.9375 -8.703125 C 6.46875 -8.296875 6.769531 -7.726562 6.84375 -7 L 5.5 -7 C 5.46875 -7.363281 5.296875 -7.671875 4.984375 -7.921875 C 4.679688 -8.179688 4.269531 -8.3125 3.75 -8.3125 C 3.226562 -8.3125 2.800781 -8.179688 2.46875 -7.921875 C 2.144531 -7.660156 1.984375 -7.273438 1.984375 -6.765625 Z M 1.984375 -6.765625 "/></g></g></g><g fill="#000000" fill-opacity="1"><g transform="translate(123.704155, 287.521222)"><g><path d="M 5.21875 0.078125 C 3.894531 0.078125 2.78125 -0.363281 1.875 -1.25 C 0.96875 -2.132812 0.515625 -3.257812 0.515625 -4.625 C 0.515625 -5.988281 0.96875 -7.113281 1.875 -8 C 2.78125 -8.882812 3.894531 -9.328125 5.21875 -9.328125 C 6.175781 -9.328125 7.03125 -9.097656 7.78125 -8.640625 C 8.539062 -8.191406 9.097656 -7.539062 9.453125 -6.6875 L 7.984375 -6.6875 C 7.429688 -7.726562 6.507812 -8.25 5.21875 -8.25 C 4.21875 -8.25 3.390625 -7.914062 2.734375 -7.25 C 2.085938 -6.59375 1.765625 -5.71875 1.765625 -4.625 C 1.765625 -3.53125 2.085938 -2.648438 2.734375 -1.984375 C 3.390625 -1.316406 4.21875 -0.984375 5.21875 -0.984375 C 5.832031 -0.984375 6.378906 -1.117188 6.859375 -1.390625 C 7.335938 -1.660156 7.710938 -2.050781 7.984375 -2.5625 L 9.453125 -2.5625 C 9.097656 -1.707031 8.539062 -1.050781 7.78125 -0.59375 C 7.03125 -0.144531 6.175781 0.078125 5.21875 0.078125 Z M 5.21875 0.078125 "/></g></g></g><g fill="#000000" fill-opacity="1"><g transform="translate(137.023888, 287.521222)"><g><path d="M 2.21875 -3.8125 L 2.21875 0 L 1 0 L 1 -9.234375 L 4 -9.234375 C 5.039062 -9.234375 5.832031 -8.976562 6.375 -8.46875 C 6.925781 -7.96875 7.203125 -7.347656 7.203125 -6.609375 C 7.203125 -5.878906 7 -5.269531 6.59375 -4.78125 C 6.195312 -4.289062 5.597656 -3.984375 4.796875 -3.859375 L 7.34375 0 L 5.828125 0 L 3.40625 -3.8125 Z M 2.21875 -8.265625 L 2.21875 -4.765625 L 4 -4.765625 C 4.664062 -4.765625 5.160156 -4.914062 5.484375 -5.21875 C 5.804688 -5.53125 5.96875 -5.960938 5.96875 -6.515625 C 5.96875 -7.679688 5.3125 -8.265625 4 -8.265625 Z M 2.21875 -8.265625 "/></g></g></g><g fill="#000000" fill-opacity="1"><g transform="translate(148.210341, 287.521222)"><g><path d="M 1 0 L 1 -9.234375 L 2.21875 -9.234375 L 2.21875 0 Z M 1 0 "/></g></g></g><g fill="#000000" fill-opacity="1"><g transform="translate(154.383571, 287.521222)"><g><path d="M 4 -9.234375 C 5.039062 -9.234375 5.832031 -8.976562 6.375 -8.46875 C 6.925781 -7.96875 7.203125 -7.320312 7.203125 -6.53125 C 7.203125 -5.738281 6.9375 -5.085938 6.40625 -4.578125 C 5.875 -4.066406 5.070312 -3.8125 4 -3.8125 L 2.21875 -3.8125 L 2.21875 0 L 1 0 L 1 -9.234375 Z M 2.21875 -4.765625 L 4 -4.765625 C 4.664062 -4.765625 5.160156 -4.914062 5.484375 -5.21875 C 5.804688 -5.53125 5.96875 -5.960938 5.96875 -6.515625 C 5.96875 -7.679688 5.3125 -8.265625 4 -8.265625 L 2.21875 -8.265625 Z M 2.21875 -4.765625 "/></g></g></g><g fill="#000000" fill-opacity="1"><g transform="translate(165.050031, 287.521222)"><g><path d="M 0.59375 -8.265625 L 0.59375 -9.234375 L 6.671875 -9.234375 L 6.671875 -8.265625 L 4.234375 -8.265625 L 4.234375 0 L 3.03125 0 L 3.03125 -8.265625 Z M 0.59375 -8.265625 "/></g></g></g><g fill="#000000" fill-opacity="1"><g transform="translate(175.289841, 287.521222)"><g><path d="M 1 0 L 1 -9.234375 L 2.21875 -9.234375 L 2.21875 0 Z M 1 0 "/></g></g></g><g fill="#000000" fill-opacity="1"><g transform="translate(181.463071, 287.521222)"><g><path d="M 7.703125 -1.984375 C 8.347656 -2.648438 8.671875 -3.53125 8.671875 -4.625 C 8.671875 -5.71875 8.347656 -6.59375 7.703125 -7.25 C 7.054688 -7.914062 6.226562 -8.25 5.21875 -8.25 C 4.207031 -8.25 3.375 -7.914062 2.71875 -7.25 C 2.070312 -6.59375 1.75 -5.71875 1.75 -4.625 C 1.75 -3.53125 2.078125 -2.648438 2.734375 -1.984375 C 3.390625 -1.316406 4.21875 -0.984375 5.21875 -0.984375 C 6.226562 -0.984375 7.054688 -1.316406 7.703125 -1.984375 Z M 5.21875 0.09375 C 3.894531 0.09375 2.78125 -0.347656 1.875 -1.234375 C 0.96875 -2.128906 0.515625 -3.257812 0.515625 -4.625 C 0.515625 -5.988281 0.96875 -7.113281 1.875 -8 C 2.78125 -8.882812 3.894531 -9.328125 5.21875 -9.328125 C 6.539062 -9.328125 7.65625 -8.882812 8.5625 -8 C 9.46875 -7.113281 9.921875 -5.988281 9.921875 -4.625 C 9.921875 -3.257812 9.46875 -2.128906 8.5625 -1.234375 C 7.65625 -0.347656 6.539062 0.09375 5.21875 0.09375 Z M 5.21875 0.09375 "/></g></g></g><g fill="#000000" fill-opacity="1"><g transform="translate(194.849467, 287.521222)"><g><path d="M 7.09375 -9.234375 L 8.296875 -9.234375 L 8.296875 0 L 7.09375 0 L 2.21875 -7.328125 L 2.21875 0 L 1 0 L 1 -9.234375 L 2.21875 -9.234375 L 7.09375 -1.90625 Z M 7.09375 -9.234375 "/></g></g></g><g fill="#000000" fill-opacity="1"><g transform="translate(207.115898, 287.521222)"><g/></g></g><g fill="#000000" fill-opacity="1"><g transform="translate(214.075774, 287.521222)"><g><path d="M 2.21875 -0.9375 L 3.921875 -0.9375 C 5.085938 -0.9375 5.972656 -1.253906 6.578125 -1.890625 C 7.191406 -2.535156 7.5 -3.429688 7.5 -4.578125 C 7.5 -5.722656 7.191406 -6.613281 6.578125 -7.25 C 5.972656 -7.882812 5.085938 -8.203125 3.921875 -8.203125 L 2.21875 -8.203125 Z M 3.921875 -9.234375 C 5.410156 -9.234375 6.585938 -8.816406 7.453125 -7.984375 C 8.316406 -7.148438 8.75 -6.007812 8.75 -4.5625 C 8.75 -3.125 8.316406 -2.003906 7.453125 -1.203125 C 6.585938 -0.398438 5.410156 0 3.921875 0 L 1 0 L 1 -9.234375 Z M 3.921875 -9.234375 "/></g></g></g><g fill="#000000" fill-opacity="1"><g transform="translate(226.315528, 287.521222)"><g><path d="M 5.890625 -9.234375 L 5.890625 -8.28125 L 2.21875 -8.28125 L 2.21875 -5.125 L 5.484375 -5.125 L 5.484375 -4.1875 L 2.21875 -4.1875 L 2.21875 -0.953125 L 5.890625 -0.953125 L 5.890625 0 L 1 0 L 1 -9.234375 Z M 5.890625 -9.234375 "/></g></g></g><g fill="#000000" fill-opacity="1"><g transform="translate(236.00868, 287.521222)"><g><path d="M 3.875 0 L 0.3125 -9.234375 L 1.609375 -9.234375 L 4.515625 -1.296875 L 7.453125 -9.234375 L 8.75 -9.234375 L 5.1875 0 Z M 3.875 0 "/></g></g></g><g fill="#000000" fill-opacity="1"><g transform="translate(248.035108, 287.521222)"><g><path d="M 1 0 L 1 -9.234375 L 2.21875 -9.234375 L 2.21875 0 Z M 1 0 "/></g></g></g><g fill="#000000" fill-opacity="1"><g transform="translate(254.208338, 287.521222)"><g><path d="M 5.21875 0.078125 C 3.894531 0.078125 2.78125 -0.363281 1.875 -1.25 C 0.96875 -2.132812 0.515625 -3.257812 0.515625 -4.625 C 0.515625 -5.988281 0.96875 -7.113281 1.875 -8 C 2.78125 -8.882812 3.894531 -9.328125 5.21875 -9.328125 C 6.175781 -9.328125 7.03125 -9.097656 7.78125 -8.640625 C 8.539062 -8.191406 9.097656 -7.539062 9.453125 -6.6875 L 7.984375 -6.6875 C 7.429688 -7.726562 6.507812 -8.25 5.21875 -8.25 C 4.21875 -8.25 3.390625 -7.914062 2.734375 -7.25 C 2.085938 -6.59375 1.765625 -5.71875 1.765625 -4.625 C 1.765625 -3.53125 2.085938 -2.648438 2.734375 -1.984375 C 3.390625 -1.316406 4.21875 -0.984375 5.21875 -0.984375 C 5.832031 -0.984375 6.378906 -1.117188 6.859375 -1.390625 C 7.335938 -1.660156 7.710938 -2.050781 7.984375 -2.5625 L 9.453125 -2.5625 C 9.097656 -1.707031 8.539062 -1.050781 7.78125 -0.59375 C 7.03125 -0.144531 6.175781 0.078125 5.21875 0.078125 Z M 5.21875 0.078125 "/></g></g></g><g fill="#000000" fill-opacity="1"><g transform="translate(267.528068, 287.521222)"><g><path d="M 5.890625 -9.234375 L 5.890625 -8.28125 L 2.21875 -8.28125 L 2.21875 -5.125 L 5.484375 -5.125 L 5.484375 -4.1875 L 2.21875 -4.1875 L 2.21875 -0.953125 L 5.890625 -0.953125 L 5.890625 0 L 1 0 L 1 -9.234375 Z M 5.890625 -9.234375 "/></g></g></g><g fill="#000000" fill-opacity="1"><g transform="translate(277.230024, 287.521222)"><g/></g></g><g clip-path="url(#c69a519b82)"><path fill="#17207a" d="M 180.195312 79.683594 L 218.429688 79.683594 C 233.136719 79.683594 245.183594 91.722656 245.183594 106.441406 L 245.183594 111.667969 L 254.996094 130.929688 L 245.386719 133.199219 L 245.386719 153.84375 C 245.386719 157.203125 242.636719 159.953125 239.277344 159.953125 L 233.59375 159.953125 C 230.222656 159.953125 227.40625 162.480469 226.96875 165.746094 C 227.007812 166.035156 227.027344 166.335938 227.027344 166.644531 L 227.027344 180.019531 C 227.027344 183.699219 224.015625 186.710938 220.335938 186.710938 L 206.953125 186.710938 C 203.273438 186.710938 200.261719 183.699219 200.261719 180.019531 L 200.261719 166.636719 C 200.261719 162.984375 197.296875 159.992188 193.65625 159.945312 L 180.195312 159.945312 C 176.515625 159.945312 173.503906 156.933594 173.503906 153.253906 L 173.503906 139.878906 C 173.503906 136.199219 176.515625 133.1875 180.195312 133.1875 L 193.570312 133.1875 C 197.25 133.1875 200.261719 130.175781 200.261719 126.496094 L 200.261719 113.121094 C 200.261719 109.441406 197.25 106.429688 193.570312 106.429688 L 180.195312 106.429688 C 176.515625 106.429688 173.503906 103.417969 173.503906 99.738281 L 173.503906 86.375 C 173.515625 82.695312 176.527344 79.683594 180.195312 79.683594 Z M 180.195312 79.683594 " fill-opacity="1" fill-rule="evenodd"/></g><path fill="#3c50d0" d="M 140.066406 106.441406 L 126.691406 106.441406 C 123.011719 106.441406 120 109.453125 120 113.132812 L 120 126.503906 C 120 130.1875 123.011719 133.199219 126.691406 133.199219 L 140.066406 133.199219 C 143.746094 133.199219 146.757812 130.1875 146.757812 126.503906 L 146.757812 113.132812 C 146.757812 109.453125 143.746094 106.441406 140.066406 106.441406 Z M 140.066406 106.441406 " fill-opacity="1" fill-rule="evenodd"/><g clip-path="url(#b9b42154e0)"><path fill="#0a21c0" d="M 153.449219 159.945312 L 166.820312 159.945312 C 170.503906 159.945312 173.515625 162.957031 173.515625 166.636719 L 173.515625 180.007812 C 173.515625 183.691406 170.503906 186.703125 166.820312 186.703125 L 153.449219 186.703125 C 149.769531 186.703125 146.757812 183.691406 146.757812 180.007812 L 146.757812 166.636719 C 146.757812 162.957031 149.769531 159.945312 153.449219 159.945312 Z M 153.449219 159.945312 " fill-opacity="1" fill-rule="evenodd"/></g></svg>