<svg xmlns="http://www.w3.org/2000/svg" xmlns:xlink="http://www.w3.org/1999/xlink" width="500" zoomAndPan="magnify" viewBox="0 0 375 374.999991" height="500" preserveAspectRatio="xMidYMid meet" version="1.0"><defs><g/><clipPath id="93388f78c7"><path d="M 173 79.683594 L 254.972656 79.683594 L 254.972656 186.933594 L 173 186.933594 Z M 173 79.683594 " clip-rule="nonzero"/></clipPath><clipPath id="86dec8da70"><path d="M 146 159 L 174 159 L 174 186.933594 L 146 186.933594 Z M 146 159 " clip-rule="nonzero"/></clipPath></defs><g fill="#cfd2e4" fill-opacity="1"><g transform="translate(104.635398, 227.268119)"><g><path d="M 23.53125 -0.703125 C 21.546875 -0.890625 20.71875 -1.78125 19.625 -4.4375 L 11.796875 -23.453125 L 10.734375 -23.453125 L 0.78125 0 L 2.375 0 L 5.21875 -6.75 L 15.171875 -6.75 L 16.0625 -4.4375 C 17.59375 -0.3125 20.515625 0.171875 22.109375 0.171875 C 22.640625 0.171875 23.140625 0.109375 23.53125 0 Z M 10.203125 -18.484375 L 14.46875 -8.171875 L 5.765625 -8.171875 Z M 10.203125 -18.484375 "/></g></g></g><g fill="#cfd2e4" fill-opacity="1"><g transform="translate(128.769607, 227.268119)"><g><path d="M 3.15625 -4.265625 C 3.15625 -0.703125 3.875 0 6.359375 0 L 9.5625 0 L 9.5625 -0.703125 L 8.84375 -0.703125 C 6.71875 -0.703125 6.359375 -2.125 6.359375 -4.265625 L 6.359375 -23.453125 L 3.15625 -23.453125 Z M 3.15625 -4.265625 "/></g></g></g><g fill="#cfd2e4" fill-opacity="1"><g transform="translate(140.463757, 227.268119)"><g/></g></g><g fill="#cfd2e4" fill-opacity="1"><g transform="translate(150.9139, 227.268119)"><g><path d="M 6.359375 -19.296875 C 4.65625 -23.359375 1.921875 -23.8125 0.171875 -23.8125 C -0.140625 -23.8125 -0.859375 -23.75 -1.03125 -23.75 L -1.03125 -23.03125 C 0.953125 -22.859375 1.734375 -21.96875 2.875 -19.296875 L 11.125 0.359375 L 11.765625 0.359375 L 21.96875 -23.453125 L 20.265625 -23.453125 L 12.4375 -4.96875 Z M 6.359375 -19.296875 "/></g></g></g><g fill="#cfd2e4" fill-opacity="1"><g transform="translate(175.225824, 227.268119)"><g><path d="M 3.15625 -4.265625 C 3.15625 -0.703125 3.875 0 6.359375 0 L 9.5625 0 L 9.5625 -0.703125 L 8.84375 -0.703125 C 6.71875 -0.703125 6.359375 -2.125 6.359375 -4.265625 L 6.359375 -23.453125 L 3.15625 -23.453125 Z M 3.15625 -4.265625 "/></g></g></g><g fill="#cfd2e4" fill-opacity="1"><g transform="translate(186.919974, 227.268119)"><g><path d="M 17.421875 -5.96875 C 17.421875 -8.640625 16.03125 -10.03125 13.015625 -11.84375 L 8.640625 -14.4375 C 6.046875 -15.953125 4.6875 -17.03125 4.6875 -19.09375 C 4.6875 -21.296875 6.71875 -22.671875 8.8125 -22.671875 C 12.828125 -22.671875 15.03125 -20.828125 15.859375 -16.03125 L 16.5 -16.03125 L 16.5 -19.828125 C 16.5 -22.53125 12.328125 -24.09375 8.8125 -24.09375 C 4.6875 -24.09375 1.921875 -21.71875 1.921875 -18.0625 C 1.921875 -15.390625 3.0625 -13.75 6.078125 -11.9375 L 10.453125 -9.34375 C 13.046875 -7.8125 14.359375 -6.546875 14.359375 -4.4375 C 14.359375 -2.0625 12.125 -0.8125 9.703125 -0.8125 C 5.6875 -0.8125 3.375 -2.734375 2.5625 -7.53125 L 1.921875 -7.53125 L 1.921875 -3.734375 C 1.921875 -1.0625 6.1875 0.609375 10.03125 0.609375 C 14.578125 0.609375 17.421875 -1.984375 17.421875 -5.96875 Z M 17.421875 -5.96875 "/></g></g></g><g fill="#cfd2e4" fill-opacity="1"><g transform="translate(207.428798, 227.268119)"><g><path d="M 3.15625 -4.265625 C 3.15625 -0.703125 3.875 0 6.359375 0 L 9.5625 0 L 9.5625 -0.703125 L 8.84375 -0.703125 C 6.71875 -0.703125 6.359375 -2.125 6.359375 -4.265625 L 6.359375 -23.453125 L 3.15625 -23.453125 Z M 3.15625 -4.265625 "/></g></g></g><g fill="#cfd2e4" fill-opacity="1"><g transform="translate(219.122954, 227.268119)"><g><path d="M 20.125 -11.734375 C 20.125 -4.96875 17.3125 -0.703125 12.65625 -0.703125 C 8 -0.703125 5.1875 -4.96875 5.1875 -11.734375 C 5.1875 -18.484375 8 -22.75 12.65625 -22.75 C 17.3125 -22.75 20.125 -18.484375 20.125 -11.734375 Z M 1.640625 -11.734375 C 1.640625 -4.765625 5.90625 0.703125 12.65625 0.703125 C 19.40625 0.703125 23.671875 -4.765625 23.671875 -11.734375 C 23.671875 -18.703125 19.40625 -24.171875 12.65625 -24.171875 C 5.90625 -24.171875 1.640625 -18.703125 1.640625 -11.734375 Z M 1.640625 -11.734375 "/></g></g></g><g fill="#cfd2e4" fill-opacity="1"><g transform="translate(245.993977, 227.268119)"><g><path d="M 3.90625 0 L 5.328125 0 L 5.328125 -18.65625 L 20.609375 0.359375 L 21.328125 0.359375 L 21.328125 -23.453125 L 19.90625 -23.453125 L 19.90625 -5.859375 L 7.46875 -21.328125 C 6.390625 -22.671875 4.96875 -23.453125 2.671875 -23.453125 L 0.359375 -23.453125 L 0.359375 -22.75 L 0.703125 -22.75 C 3.15625 -22.75 3.90625 -21.328125 3.90625 -19.1875 Z M 3.90625 0 "/></g></g></g><g fill="#cfd2e4" fill-opacity="1"><g transform="translate(46.007832, 254.859754)"><g><path d="M 4.109375 -8.265625 C 6.03125 -8.265625 7.328125 -6.75 7.328125 -4.390625 C 7.328125 -2 5.984375 -0.53125 4.125 -0.53125 C 3.578125 -0.53125 3.3125 -0.59375 3 -0.625 L 3 -8.171875 C 3.328125 -8.21875 3.671875 -8.265625 4.109375 -8.265625 Z M 0.203125 -8.796875 L 0.203125 -8.390625 L 0.328125 -8.390625 C 1.140625 -8.390625 1.265625 -7.859375 1.265625 -7.0625 L 1.265625 0 L 4.171875 0 C 7.53125 0 9.328125 -1.828125 9.328125 -4.453125 C 9.328125 -7.15625 7.484375 -8.796875 3.828125 -8.796875 Z M 0.203125 -8.796875 "/></g></g></g><g fill="#cfd2e4" fill-opacity="1"><g transform="translate(58.774387, 254.859754)"><g><path d="M 0.203125 -8.796875 L 0.203125 -8.390625 L 0.328125 -8.390625 C 1.140625 -8.390625 1.265625 -7.859375 1.265625 -7.0625 L 1.265625 0 L 6.203125 0 C 6.9375 0 7.15625 -0.359375 7.359375 -0.9375 L 7.75 -1.984375 L 7.390625 -2.125 C 6.921875 -0.953125 6.25 -0.59375 5.28125 -0.59375 L 3 -0.59375 L 3 -4.265625 L 6.46875 -4.265625 L 6.46875 -4.859375 L 3 -4.859375 L 3 -8.203125 L 5.140625 -8.203125 C 6.203125 -8.203125 6.8125 -7.734375 6.8125 -6.59375 L 7.203125 -6.59375 L 7.203125 -7.734375 C 7.203125 -8.265625 7 -8.796875 6.078125 -8.796875 Z M 0.203125 -8.796875 "/></g></g></g><g fill="#cfd2e4" fill-opacity="1"><g transform="translate(69.728861, 254.859754)"><g><path d="M 3.984375 0.140625 L 4.515625 0.140625 L 8.359375 -8.796875 L 7.671875 -8.796875 L 4.859375 -2.25 L 2.765625 -7.234375 C 2.125 -8.75 1.046875 -8.9375 0.125 -8.9375 C 0 -8.9375 -0.375 -8.90625 -0.4375 -8.90625 L -0.4375 -8.640625 C 0.09375 -8.5625 0.453125 -8.234375 0.875 -7.234375 Z M 3.984375 0.140625 "/></g></g></g><g fill="#cfd2e4" fill-opacity="1"><g transform="translate(81.149683, 254.859754)"><g><path d="M 0.203125 -8.796875 L 0.203125 -8.390625 L 0.328125 -8.390625 C 1.140625 -8.390625 1.265625 -7.859375 1.265625 -7.0625 L 1.265625 0 L 6.203125 0 C 6.9375 0 7.15625 -0.359375 7.359375 -0.9375 L 7.75 -1.984375 L 7.390625 -2.125 C 6.921875 -0.953125 6.25 -0.59375 5.28125 -0.59375 L 3 -0.59375 L 3 -4.265625 L 6.46875 -4.265625 L 6.46875 -4.859375 L 3 -4.859375 L 3 -8.203125 L 5.140625 -8.203125 C 6.203125 -8.203125 6.8125 -7.734375 6.8125 -6.59375 L 7.203125 -6.59375 L 7.203125 -7.734375 C 7.203125 -8.265625 7 -8.796875 6.078125 -8.796875 Z M 0.203125 -8.796875 "/></g></g></g><g fill="#cfd2e4" fill-opacity="1"><g transform="translate(92.104156, 254.859754)"><g><path d="M 3 -0.59375 L 3 -7.0625 C 3 -8.390625 2.734375 -8.796875 1.796875 -8.796875 L 0.203125 -8.796875 L 0.203125 -8.390625 L 0.328125 -8.390625 C 1.140625 -8.390625 1.265625 -7.859375 1.265625 -7.0625 L 1.265625 0 L 7.59375 0 L 7.59375 -0.59375 Z M 3 -0.59375 "/></g></g></g><g fill="#cfd2e4" fill-opacity="1"><g transform="translate(102.658898, 254.859754)"><g><path d="M 7.4375 -4.390625 C 7.4375 -1.796875 6.5 -0.328125 4.890625 -0.328125 C 3.28125 -0.328125 2.359375 -1.796875 2.359375 -4.390625 C 2.359375 -7 3.28125 -8.46875 4.890625 -8.46875 C 6.5 -8.46875 7.4375 -7 7.4375 -4.390625 Z M 0.5 -4.390625 C 0.5 -1.765625 2.234375 0.265625 4.890625 0.265625 C 7.546875 0.265625 9.28125 -1.765625 9.28125 -4.390625 C 9.28125 -7.03125 7.546875 -9.0625 4.890625 -9.0625 C 2.234375 -9.0625 0.5 -7.03125 0.5 -4.390625 Z M 0.5 -4.390625 "/></g></g></g><g fill="#cfd2e4" fill-opacity="1"><g transform="translate(115.385477, 254.859754)"><g><path d="M 3.859375 -8.265625 C 4.703125 -8.265625 5.59375 -7.828125 5.59375 -6.1875 C 5.59375 -4.53125 4.703125 -4.09375 3.796875 -4.09375 L 3 -4.09375 L 3 -8.171875 C 3.28125 -8.21875 3.578125 -8.265625 3.859375 -8.265625 Z M 0.203125 -8.796875 L 0.203125 -8.390625 L 0.328125 -8.390625 C 1.140625 -8.390625 1.265625 -7.859375 1.265625 -7.0625 L 1.265625 0 L 3 0 L 3 -3.5625 L 4.265625 -3.5625 C 5.046875 -3.5625 7.46875 -3.8125 7.46875 -6.125 C 7.46875 -8.5625 5.0625 -8.796875 3.859375 -8.796875 Z M 0.203125 -8.796875 "/></g></g></g><g fill="#cfd2e4" fill-opacity="1"><g transform="translate(126.033489, 254.859754)"><g><path d="M 1.046875 -1.734375 C 1.046875 -0.390625 1.3125 0 2.25 0 L 3.859375 0 L 3.859375 -0.40625 L 3.71875 -0.40625 C 2.921875 -0.40625 2.78125 -0.9375 2.78125 -1.734375 L 2.78125 -8.796875 L 1.046875 -8.796875 Z M 1.046875 -1.734375 "/></g></g></g><g fill="#cfd2e4" fill-opacity="1"><g transform="translate(133.044019, 254.859754)"><g><path d="M 2.984375 -8 C 2.578125 -8.53125 1.984375 -8.796875 0.96875 -8.796875 L 0.046875 -8.796875 L 0.046875 -8.390625 L 0.109375 -8.390625 C 1.046875 -8.390625 1.3125 -7.875 1.3125 -7.203125 L 1.3125 0 L 1.96875 0 L 1.96875 -6.59375 L 7.625 0.046875 L 8.234375 0.046875 L 8.234375 -8.796875 L 7.578125 -8.796875 L 7.578125 -2.671875 Z M 2.984375 -8 "/></g></g></g><g fill="#cfd2e4" fill-opacity="1"><g transform="translate(145.224314, 254.859754)"><g><path d="M 8.796875 -3.015625 C 8.796875 -3.8125 9.046875 -4.28125 9.65625 -4.28125 L 9.65625 -4.609375 C 7.390625 -4.609375 7.0625 -3.71875 7.0625 -2.984375 L 7.0625 -0.609375 C 6.59375 -0.40625 6.0625 -0.265625 5.265625 -0.265625 C 3.625 -0.265625 2.328125 -1.296875 2.328125 -4.53125 C 2.328125 -6.578125 3.140625 -8.46875 5.265625 -8.46875 C 6.8125 -8.46875 7.703125 -7.765625 8.03125 -6.125 L 8.4375 -6.125 C 8.4375 -6.734375 8.4375 -7.53125 8.09375 -7.984375 C 7.59375 -8.5625 6.53125 -9.0625 4.859375 -9.0625 C 2.21875 -9.0625 0.46875 -7.09375 0.46875 -4.53125 C 0.46875 -1.84375 2.5 0.265625 5.265625 0.265625 C 6.640625 0.265625 7.765625 0 8.796875 -0.625 Z M 8.796875 -3.015625 "/></g></g></g><g fill="#cfd2e4" fill-opacity="1"><g transform="translate(157.96422, 254.859754)"><g/></g></g><g fill="#cfd2e4" fill-opacity="1"><g transform="translate(164.255242, 254.859754)"><g><path d="M 1.34375 -8.796875 C 0.421875 -8.796875 0.21875 -8.265625 0.21875 -7.734375 L 0.21875 -6.59375 L 0.609375 -6.59375 C 0.609375 -7.78125 1.203125 -8.203125 2.140625 -8.203125 L 3.09375 -8.203125 L 3.09375 0 L 4.828125 0 L 4.828125 -8.203125 L 7.609375 -8.203125 L 7.609375 -8.796875 Z M 1.34375 -8.796875 "/></g></g></g><g fill="#cfd2e4" fill-opacity="1"><g transform="translate(174.876618, 254.859754)"><g><path d="M 6.59375 -4.859375 L 3 -4.859375 L 3 -7.0625 C 3 -8.390625 2.734375 -8.796875 1.796875 -8.796875 L 0.203125 -8.796875 L 0.203125 -8.390625 L 0.328125 -8.390625 C 1.140625 -8.390625 1.265625 -7.859375 1.265625 -7.0625 L 1.265625 0 L 3 0 L 3 -4.265625 L 6.59375 -4.265625 L 6.59375 -1.734375 C 6.59375 -0.390625 6.859375 0 7.796875 0 L 9.390625 0 L 9.390625 -0.40625 L 9.265625 -0.40625 C 8.46875 -0.40625 8.328125 -0.9375 8.328125 -1.734375 L 8.328125 -8.796875 L 6.59375 -8.796875 Z M 6.59375 -4.859375 "/></g></g></g><g fill="#cfd2e4" fill-opacity="1"><g transform="translate(187.429996, 254.859754)"><g><path d="M 0.203125 -8.796875 L 0.203125 -8.390625 L 0.328125 -8.390625 C 1.140625 -8.390625 1.265625 -7.859375 1.265625 -7.0625 L 1.265625 0 L 6.203125 0 C 6.9375 0 7.15625 -0.359375 7.359375 -0.9375 L 7.75 -1.984375 L 7.390625 -2.125 C 6.921875 -0.953125 6.25 -0.59375 5.28125 -0.59375 L 3 -0.59375 L 3 -4.265625 L 6.46875 -4.265625 L 6.46875 -4.859375 L 3 -4.859375 L 3 -8.203125 L 5.140625 -8.203125 C 6.203125 -8.203125 6.8125 -7.734375 6.8125 -6.59375 L 7.203125 -6.59375 L 7.203125 -7.734375 C 7.203125 -8.265625 7 -8.796875 6.078125 -8.796875 Z M 0.203125 -8.796875 "/></g></g></g><g fill="#cfd2e4" fill-opacity="1"><g transform="translate(198.384474, 254.859754)"><g/></g></g><g fill="#cfd2e4" fill-opacity="1"><g transform="translate(204.675497, 254.859754)"><g><path d="M 6.96875 -7.234375 C 6.359375 -8.765625 5.265625 -8.9375 4.328125 -8.9375 C 4.21875 -8.9375 3.875 -8.90625 3.8125 -8.90625 L 3.8125 -8.640625 C 4.34375 -8.5625 4.8125 -8.25 5.21875 -7.234375 L 5.6875 -6.046875 L 4.484375 -2.640625 L 2.6875 -7.234375 C 2.078125 -8.78125 0.984375 -8.9375 0.046875 -8.9375 C -0.0625 -8.9375 -0.4375 -8.90625 -0.5 -8.90625 L -0.5 -8.640625 C 0.03125 -8.5625 0.40625 -8.25 0.8125 -7.234375 L 3.6875 0.125 L 4.21875 0.125 L 6.046875 -5.109375 L 8.109375 0.125 L 8.640625 0.125 L 11.796875 -8.796875 L 11.15625 -8.796875 L 8.875 -2.390625 Z M 6.96875 -7.234375 "/></g></g></g><g fill="#cfd2e4" fill-opacity="1"><g transform="translate(219.707162, 254.859754)"><g><path d="M 7.4375 -4.390625 C 7.4375 -1.796875 6.5 -0.328125 4.890625 -0.328125 C 3.28125 -0.328125 2.359375 -1.796875 2.359375 -4.390625 C 2.359375 -7 3.28125 -8.46875 4.890625 -8.46875 C 6.5 -8.46875 7.4375 -7 7.4375 -4.390625 Z M 0.5 -4.390625 C 0.5 -1.765625 2.234375 0.265625 4.890625 0.265625 C 7.546875 0.265625 9.28125 -1.765625 9.28125 -4.390625 C 9.28125 -7.03125 7.546875 -9.0625 4.890625 -9.0625 C 2.234375 -9.0625 0.5 -7.03125 0.5 -4.390625 Z M 0.5 -4.390625 "/></g></g></g><g fill="#cfd2e4" fill-opacity="1"><g transform="translate(232.433747, 254.859754)"><g><path d="M 3.875 -8.265625 C 4.671875 -8.265625 5.609375 -7.796875 5.609375 -6.40625 C 5.609375 -5.015625 4.671875 -4.5625 3.8125 -4.5625 L 3.015625 -4.5625 L 3.015625 -8.171875 C 3.3125 -8.234375 3.578125 -8.265625 3.875 -8.265625 Z M 4.875 -1.796875 C 5.765625 -0.328125 6.515625 0.140625 7.46875 0.140625 C 7.796875 0.140625 8.21875 0.0625 8.375 0 L 8.375 -0.328125 C 7.984375 -0.40625 7.390625 -0.671875 6.71875 -1.796875 L 5.3125 -4.125 C 6.328125 -4.390625 7.484375 -4.9375 7.484375 -6.34375 C 7.484375 -8.53125 5.140625 -8.796875 3.875 -8.796875 L 0.203125 -8.796875 L 0.203125 -8.390625 L 0.328125 -8.390625 C 1.140625 -8.390625 1.265625 -7.859375 1.265625 -7.0625 L 1.265625 0 L 3.015625 0 L 3.015625 -4.03125 L 3.546875 -4.03125 Z M 4.875 -1.796875 "/></g></g></g><g fill="#cfd2e4" fill-opacity="1"><g transform="translate(243.601395, 254.859754)"><g><path d="M 3 -0.59375 L 3 -7.0625 C 3 -8.390625 2.734375 -8.796875 1.796875 -8.796875 L 0.203125 -8.796875 L 0.203125 -8.390625 L 0.328125 -8.390625 C 1.140625 -8.390625 1.265625 -7.859375 1.265625 -7.0625 L 1.265625 0 L 7.59375 0 L 7.59375 -0.59375 Z M 3 -0.59375 "/></g></g></g><g fill="#cfd2e4" fill-opacity="1"><g transform="translate(254.156142, 254.859754)"><g><path d="M 4.109375 -8.265625 C 6.03125 -8.265625 7.328125 -6.75 7.328125 -4.390625 C 7.328125 -2 5.984375 -0.53125 4.125 -0.53125 C 3.578125 -0.53125 3.3125 -0.59375 3 -0.625 L 3 -8.171875 C 3.328125 -8.21875 3.671875 -8.265625 4.109375 -8.265625 Z M 0.203125 -8.796875 L 0.203125 -8.390625 L 0.328125 -8.390625 C 1.140625 -8.390625 1.265625 -7.859375 1.265625 -7.0625 L 1.265625 0 L 4.171875 0 C 7.53125 0 9.328125 -1.828125 9.328125 -4.453125 C 9.328125 -7.15625 7.484375 -8.796875 3.828125 -8.796875 Z M 0.203125 -8.796875 "/></g></g></g><g fill="#cfd2e4" fill-opacity="1"><g transform="translate(266.92269, 254.859754)"><g><path d="M 3.640625 0.234375 C 5.78125 0.234375 6.984375 -0.71875 6.984375 -2.25 C 6.984375 -3.21875 6.453125 -3.84375 5.234375 -4.546875 L 3.59375 -5.515625 C 2.765625 -6.015625 2.21875 -6.390625 2.21875 -7.140625 C 2.21875 -7.9375 2.8125 -8.4375 3.765625 -8.4375 C 5.125 -8.4375 5.953125 -7.734375 6.265625 -5.875 L 6.640625 -5.875 L 6.640625 -7.4375 C 6.640625 -8.453125 5.078125 -9.03125 3.625 -9.03125 C 1.796875 -9.03125 0.640625 -8.15625 0.640625 -6.75 C 0.640625 -5.78125 1.09375 -5.09375 2.296875 -4.375 L 3.9375 -3.390625 C 4.78125 -2.859375 5.296875 -2.421875 5.296875 -1.671875 C 5.296875 -0.8125 4.640625 -0.375 3.625 -0.375 C 2.125 -0.375 1.28125 -1.078125 1 -2.9375 L 0.625 -2.9375 L 0.625 -1.375 C 0.625 -0.359375 2.1875 0.234375 3.640625 0.234375 Z M 3.640625 0.234375 "/></g></g></g><g fill="#cfd2e4" fill-opacity="1"><g transform="translate(277.357526, 254.859754)"><g/></g></g><g fill="#cfd2e4" fill-opacity="1"><g transform="translate(283.648549, 254.859754)"><g><path d="M 10.3125 -8.796875 L 8.5625 -8.796875 L 5.84375 -2.25 L 2.609375 -8.796875 L 0.984375 -8.796875 L 0.984375 0 L 1.65625 0 L 1.65625 -7.25 L 5.21875 0 L 5.671875 0 L 8.578125 -6.984375 L 8.578125 -2.265625 C 8.578125 -0.25 9.359375 0.59375 11.28125 0.59375 L 11.28125 0.265625 C 10.546875 0.125 10.3125 -0.65625 10.3125 -2.265625 Z M 10.3125 -8.796875 "/></g></g></g><g fill="#cfd2e4" fill-opacity="1"><g transform="translate(298.160572, 254.859754)"><g><path d="M 7.4375 -4.390625 C 7.4375 -1.796875 6.5 -0.328125 4.890625 -0.328125 C 3.28125 -0.328125 2.359375 -1.796875 2.359375 -4.390625 C 2.359375 -7 3.28125 -8.46875 4.890625 -8.46875 C 6.5 -8.46875 7.4375 -7 7.4375 -4.390625 Z M 0.5 -4.390625 C 0.5 -1.765625 2.234375 0.265625 4.890625 0.265625 C 7.546875 0.265625 9.28125 -1.765625 9.28125 -4.390625 C 9.28125 -7.03125 7.546875 -9.0625 4.890625 -9.0625 C 2.234375 -9.0625 0.5 -7.03125 0.5 -4.390625 Z M 0.5 -4.390625 "/></g></g></g><g fill="#cfd2e4" fill-opacity="1"><g transform="translate(310.887157, 254.859754)"><g><path d="M 3.640625 0.234375 C 5.78125 0.234375 6.984375 -0.71875 6.984375 -2.25 C 6.984375 -3.21875 6.453125 -3.84375 5.234375 -4.546875 L 3.59375 -5.515625 C 2.765625 -6.015625 2.21875 -6.390625 2.21875 -7.140625 C 2.21875 -7.9375 2.8125 -8.4375 3.765625 -8.4375 C 5.125 -8.4375 5.953125 -7.734375 6.265625 -5.875 L 6.640625 -5.875 L 6.640625 -7.4375 C 6.640625 -8.453125 5.078125 -9.03125 3.625 -9.03125 C 1.796875 -9.03125 0.640625 -8.15625 0.640625 -6.75 C 0.640625 -5.78125 1.09375 -5.09375 2.296875 -4.375 L 3.9375 -3.390625 C 4.78125 -2.859375 5.296875 -2.421875 5.296875 -1.671875 C 5.296875 -0.8125 4.640625 -0.375 3.625 -0.375 C 2.125 -0.375 1.28125 -1.078125 1 -2.9375 L 0.625 -2.9375 L 0.625 -1.375 C 0.625 -0.359375 2.1875 0.234375 3.640625 0.234375 Z M 3.640625 0.234375 "/></g></g></g><g fill="#cfd2e4" fill-opacity="1"><g transform="translate(321.321993, 254.859754)"><g><path d="M 1.34375 -8.796875 C 0.421875 -8.796875 0.21875 -8.265625 0.21875 -7.734375 L 0.21875 -6.59375 L 0.609375 -6.59375 C 0.609375 -7.78125 1.203125 -8.203125 2.140625 -8.203125 L 3.09375 -8.203125 L 3.09375 0 L 4.828125 0 L 4.828125 -8.203125 L 7.609375 -8.203125 L 7.609375 -8.796875 Z M 1.34375 -8.796875 "/></g></g></g><g fill="#cfd2e4" fill-opacity="1"><g transform="translate(85.207048, 272.859752)"><g><path d="M 4.640625 -8.796875 L 4.03125 -8.796875 L 0.109375 0 L 0.796875 0 L 1.890625 -2.421875 L 5.4375 -2.421875 L 5.75 -1.671875 C 6.390625 -0.15625 7.484375 0.046875 8.375 0.046875 C 8.5625 0.046875 8.859375 0.03125 9.015625 -0.015625 L 9.015625 -0.34375 C 8.40625 -0.40625 7.9375 -0.890625 7.625 -1.671875 Z M 3.71875 -6.5 L 5.1875 -3.03125 L 2.171875 -3.03125 Z M 3.71875 -6.5 "/></g></g></g><g fill="#cfd2e4" fill-opacity="1"><g transform="translate(96.787755, 272.859752)"><g><path d="M 0.203125 -8.796875 L 0.203125 -8.390625 L 0.328125 -8.390625 C 1.140625 -8.390625 1.265625 -7.859375 1.265625 -7.0625 L 1.265625 0 L 3 0 L 3 -4.203125 L 5.9375 -4.203125 L 5.9375 -4.796875 L 3 -4.796875 L 3 -8.203125 L 4.84375 -8.203125 C 5.921875 -8.203125 6.515625 -7.75 6.515625 -6.59375 L 6.921875 -6.59375 L 6.921875 -7.734375 C 6.921875 -8.265625 6.703125 -8.796875 5.78125 -8.796875 Z M 0.203125 -8.796875 "/></g></g></g><g fill="#cfd2e4" fill-opacity="1"><g transform="translate(106.929458, 272.859752)"><g><path d="M 0.203125 -8.796875 L 0.203125 -8.390625 L 0.328125 -8.390625 C 1.140625 -8.390625 1.265625 -7.859375 1.265625 -7.0625 L 1.265625 0 L 3 0 L 3 -4.203125 L 5.9375 -4.203125 L 5.9375 -4.796875 L 3 -4.796875 L 3 -8.203125 L 4.84375 -8.203125 C 5.921875 -8.203125 6.515625 -7.75 6.515625 -6.59375 L 6.921875 -6.59375 L 6.921875 -7.734375 C 6.921875 -8.265625 6.703125 -8.796875 5.78125 -8.796875 Z M 0.203125 -8.796875 "/></g></g></g><g fill="#cfd2e4" fill-opacity="1"><g transform="translate(117.071163, 272.859752)"><g><path d="M 7.4375 -4.390625 C 7.4375 -1.796875 6.5 -0.328125 4.890625 -0.328125 C 3.28125 -0.328125 2.359375 -1.796875 2.359375 -4.390625 C 2.359375 -7 3.28125 -8.46875 4.890625 -8.46875 C 6.5 -8.46875 7.4375 -7 7.4375 -4.390625 Z M 0.5 -4.390625 C 0.5 -1.765625 2.234375 0.265625 4.890625 0.265625 C 7.546875 0.265625 9.28125 -1.765625 9.28125 -4.390625 C 9.28125 -7.03125 7.546875 -9.0625 4.890625 -9.0625 C 2.234375 -9.0625 0.5 -7.03125 0.5 -4.390625 Z M 0.5 -4.390625 "/></g></g></g><g fill="#cfd2e4" fill-opacity="1"><g transform="translate(129.797742, 272.859752)"><g><path d="M 3.875 -8.265625 C 4.671875 -8.265625 5.609375 -7.796875 5.609375 -6.40625 C 5.609375 -5.015625 4.671875 -4.5625 3.8125 -4.5625 L 3.015625 -4.5625 L 3.015625 -8.171875 C 3.3125 -8.234375 3.578125 -8.265625 3.875 -8.265625 Z M 4.875 -1.796875 C 5.765625 -0.328125 6.515625 0.140625 7.46875 0.140625 C 7.796875 0.140625 8.21875 0.0625 8.375 0 L 8.375 -0.328125 C 7.984375 -0.40625 7.390625 -0.671875 6.71875 -1.796875 L 5.3125 -4.125 C 6.328125 -4.390625 7.484375 -4.9375 7.484375 -6.34375 C 7.484375 -8.53125 5.140625 -8.796875 3.875 -8.796875 L 0.203125 -8.796875 L 0.203125 -8.390625 L 0.328125 -8.390625 C 1.140625 -8.390625 1.265625 -7.859375 1.265625 -7.0625 L 1.265625 0 L 3.015625 0 L 3.015625 -4.03125 L 3.546875 -4.03125 Z M 4.875 -1.796875 "/></g></g></g><g fill="#cfd2e4" fill-opacity="1"><g transform="translate(140.965395, 272.859752)"><g><path d="M 4.109375 -8.265625 C 6.03125 -8.265625 7.328125 -6.75 7.328125 -4.390625 C 7.328125 -2 5.984375 -0.53125 4.125 -0.53125 C 3.578125 -0.53125 3.3125 -0.59375 3 -0.625 L 3 -8.171875 C 3.328125 -8.21875 3.671875 -8.265625 4.109375 -8.265625 Z M 0.203125 -8.796875 L 0.203125 -8.390625 L 0.328125 -8.390625 C 1.140625 -8.390625 1.265625 -7.859375 1.265625 -7.0625 L 1.265625 0 L 4.171875 0 C 7.53125 0 9.328125 -1.828125 9.328125 -4.453125 C 9.328125 -7.15625 7.484375 -8.796875 3.828125 -8.796875 Z M 0.203125 -8.796875 "/></g></g></g><g fill="#cfd2e4" fill-opacity="1"><g transform="translate(153.731948, 272.859752)"><g><path d="M 4.640625 -8.796875 L 4.03125 -8.796875 L 0.109375 0 L 0.796875 0 L 1.890625 -2.421875 L 5.4375 -2.421875 L 5.75 -1.671875 C 6.390625 -0.15625 7.484375 0.046875 8.375 0.046875 C 8.5625 0.046875 8.859375 0.03125 9.015625 -0.015625 L 9.015625 -0.34375 C 8.40625 -0.40625 7.9375 -0.890625 7.625 -1.671875 Z M 3.71875 -6.5 L 5.1875 -3.03125 L 2.171875 -3.03125 Z M 3.71875 -6.5 "/></g></g></g><g fill="#cfd2e4" fill-opacity="1"><g transform="translate(165.312653, 272.859752)"><g><path d="M 3.796875 -8.265625 C 4.828125 -8.265625 5.859375 -7.84375 5.859375 -6.53125 C 5.859375 -5.265625 5.078125 -4.8125 4 -4.8125 L 3 -4.8125 L 3 -8.171875 C 3.265625 -8.234375 3.53125 -8.265625 3.796875 -8.265625 Z M 1.265625 0 L 4.203125 0 C 6.09375 0 8.125 -0.40625 8.125 -2.4375 C 8.125 -3.46875 7.625 -4.375 5.875 -4.546875 C 7.125 -4.859375 7.734375 -5.703125 7.734375 -6.46875 C 7.734375 -8.5625 5.46875 -8.796875 3.796875 -8.796875 L 0.203125 -8.796875 L 0.203125 -8.390625 L 0.328125 -8.390625 C 1.140625 -8.390625 1.265625 -7.859375 1.265625 -7.0625 Z M 4 -0.53125 C 3.578125 -0.546875 3.28125 -0.59375 3 -0.671875 L 3 -4.21875 L 4 -4.21875 C 5.5 -4.21875 6.265625 -3.59375 6.265625 -2.375 C 6.265625 -1.203125 5.484375 -0.53125 4 -0.53125 Z M 4 -0.53125 "/></g></g></g><g fill="#cfd2e4" fill-opacity="1"><g transform="translate(176.853384, 272.859752)"><g><path d="M 3 -0.59375 L 3 -7.0625 C 3 -8.390625 2.734375 -8.796875 1.796875 -8.796875 L 0.203125 -8.796875 L 0.203125 -8.390625 L 0.328125 -8.390625 C 1.140625 -8.390625 1.265625 -7.859375 1.265625 -7.0625 L 1.265625 0 L 7.59375 0 L 7.59375 -0.59375 Z M 3 -0.59375 "/></g></g></g><g fill="#cfd2e4" fill-opacity="1"><g transform="translate(187.408126, 272.859752)"><g><path d="M 0.203125 -8.796875 L 0.203125 -8.390625 L 0.328125 -8.390625 C 1.140625 -8.390625 1.265625 -7.859375 1.265625 -7.0625 L 1.265625 0 L 6.203125 0 C 6.9375 0 7.15625 -0.359375 7.359375 -0.9375 L 7.75 -1.984375 L 7.390625 -2.125 C 6.921875 -0.953125 6.25 -0.59375 5.28125 -0.59375 L 3 -0.59375 L 3 -4.265625 L 6.46875 -4.265625 L 6.46875 -4.859375 L 3 -4.859375 L 3 -8.203125 L 5.140625 -8.203125 C 6.203125 -8.203125 6.8125 -7.734375 6.8125 -6.59375 L 7.203125 -6.59375 L 7.203125 -7.734375 C 7.203125 -8.265625 7 -8.796875 6.078125 -8.796875 Z M 0.203125 -8.796875 "/></g></g></g><g fill="#cfd2e4" fill-opacity="1"><g transform="translate(198.362605, 272.859752)"><g/></g></g><g fill="#cfd2e4" fill-opacity="1"><g transform="translate(204.653627, 272.859752)"><g><path d="M 4.640625 -8.796875 L 4.03125 -8.796875 L 0.109375 0 L 0.796875 0 L 1.890625 -2.421875 L 5.4375 -2.421875 L 5.75 -1.671875 C 6.390625 -0.15625 7.484375 0.046875 8.375 0.046875 C 8.5625 0.046875 8.859375 0.03125 9.015625 -0.015625 L 9.015625 -0.34375 C 8.40625 -0.40625 7.9375 -0.890625 7.625 -1.671875 Z M 3.71875 -6.5 L 5.1875 -3.03125 L 2.171875 -3.03125 Z M 3.71875 -6.5 "/></g></g></g><g fill="#cfd2e4" fill-opacity="1"><g transform="translate(216.234338, 272.859752)"><g><path d="M 1.046875 -1.734375 C 1.046875 -0.390625 1.3125 0 2.25 0 L 3.859375 0 L 3.859375 -0.40625 L 3.71875 -0.40625 C 2.921875 -0.40625 2.78125 -0.9375 2.78125 -1.734375 L 2.78125 -8.796875 L 1.046875 -8.796875 Z M 1.046875 -1.734375 "/></g></g></g><g fill="#cfd2e4" fill-opacity="1"><g transform="translate(223.244874, 272.859752)"><g/></g></g><g fill="#cfd2e4" fill-opacity="1"><g transform="translate(229.535897, 272.859752)"><g><path d="M 3.984375 0.140625 L 4.515625 0.140625 L 8.359375 -8.796875 L 7.671875 -8.796875 L 4.859375 -2.25 L 2.765625 -7.234375 C 2.125 -8.75 1.046875 -8.9375 0.125 -8.9375 C 0 -8.9375 -0.375 -8.90625 -0.4375 -8.90625 L -0.4375 -8.640625 C 0.09375 -8.5625 0.453125 -8.234375 0.875 -7.234375 Z M 3.984375 0.140625 "/></g></g></g><g fill="#cfd2e4" fill-opacity="1"><g transform="translate(240.956722, 272.859752)"><g><path d="M 1.046875 -1.734375 C 1.046875 -0.390625 1.3125 0 2.25 0 L 3.859375 0 L 3.859375 -0.40625 L 3.71875 -0.40625 C 2.921875 -0.40625 2.78125 -0.9375 2.78125 -1.734375 L 2.78125 -8.796875 L 1.046875 -8.796875 Z M 1.046875 -1.734375 "/></g></g></g><g fill="#cfd2e4" fill-opacity="1"><g transform="translate(247.967258, 272.859752)"><g><path d="M 3.640625 0.234375 C 5.78125 0.234375 6.984375 -0.71875 6.984375 -2.25 C 6.984375 -3.21875 6.453125 -3.84375 5.234375 -4.546875 L 3.59375 -5.515625 C 2.765625 -6.015625 2.21875 -6.390625 2.21875 -7.140625 C 2.21875 -7.9375 2.8125 -8.4375 3.765625 -8.4375 C 5.125 -8.4375 5.953125 -7.734375 6.265625 -5.875 L 6.640625 -5.875 L 6.640625 -7.4375 C 6.640625 -8.453125 5.078125 -9.03125 3.625 -9.03125 C 1.796875 -9.03125 0.640625 -8.15625 0.640625 -6.75 C 0.640625 -5.78125 1.09375 -5.09375 2.296875 -4.375 L 3.9375 -3.390625 C 4.78125 -2.859375 5.296875 -2.421875 5.296875 -1.671875 C 5.296875 -0.8125 4.640625 -0.375 3.625 -0.375 C 2.125 -0.375 1.28125 -1.078125 1 -2.9375 L 0.625 -2.9375 L 0.625 -1.375 C 0.625 -0.359375 2.1875 0.234375 3.640625 0.234375 Z M 3.640625 0.234375 "/></g></g></g><g fill="#cfd2e4" fill-opacity="1"><g transform="translate(258.402094, 272.859752)"><g><path d="M 2.953125 -7.0625 C 2.953125 -8.390625 2.6875 -8.796875 1.765625 -8.796875 L 0.296875 -8.796875 L 0.296875 -8.390625 C 1.09375 -8.390625 1.21875 -7.859375 1.21875 -7.0625 L 1.21875 -3.84375 C 1.21875 -1.1875 2.421875 0.140625 4.828125 0.140625 C 7.421875 0.140625 8.359375 -1.328125 8.359375 -3.84375 L 8.359375 -8.796875 L 7.6875 -8.796875 L 7.6875 -3.84375 C 7.6875 -1.5 6.90625 -0.46875 5.09375 -0.46875 C 3.6875 -0.46875 2.984375 -1.59375 2.96875 -3.4375 Z M 2.953125 -7.0625 "/></g></g></g><g fill="#cfd2e4" fill-opacity="1"><g transform="translate(270.609037, 272.859752)"><g><path d="M 4.640625 -8.796875 L 4.03125 -8.796875 L 0.109375 0 L 0.796875 0 L 1.890625 -2.421875 L 5.4375 -2.421875 L 5.75 -1.671875 C 6.390625 -0.15625 7.484375 0.046875 8.375 0.046875 C 8.5625 0.046875 8.859375 0.03125 9.015625 -0.015625 L 9.015625 -0.34375 C 8.40625 -0.40625 7.9375 -0.890625 7.625 -1.671875 Z M 3.71875 -6.5 L 5.1875 -3.03125 L 2.171875 -3.03125 Z M 3.71875 -6.5 "/></g></g></g><g fill="#cfd2e4" fill-opacity="1"><g transform="translate(282.189748, 272.859752)"><g><path d="M 3 -0.59375 L 3 -7.0625 C 3 -8.390625 2.734375 -8.796875 1.796875 -8.796875 L 0.203125 -8.796875 L 0.203125 -8.390625 L 0.328125 -8.390625 C 1.140625 -8.390625 1.265625 -7.859375 1.265625 -7.0625 L 1.265625 0 L 7.59375 0 L 7.59375 -0.59375 Z M 3 -0.59375 "/></g></g></g><g fill="#cfd2e4" fill-opacity="1"><g transform="translate(91.359392, 290.859751)"><g><path d="M 4.109375 -8.265625 C 6.03125 -8.265625 7.328125 -6.75 7.328125 -4.390625 C 7.328125 -2 5.984375 -0.53125 4.125 -0.53125 C 3.578125 -0.53125 3.3125 -0.59375 3 -0.625 L 3 -8.171875 C 3.328125 -8.21875 3.671875 -8.265625 4.109375 -8.265625 Z M 0.203125 -8.796875 L 0.203125 -8.390625 L 0.328125 -8.390625 C 1.140625 -8.390625 1.265625 -7.859375 1.265625 -7.0625 L 1.265625 0 L 4.171875 0 C 7.53125 0 9.328125 -1.828125 9.328125 -4.453125 C 9.328125 -7.15625 7.484375 -8.796875 3.828125 -8.796875 Z M 0.203125 -8.796875 "/></g></g></g><g fill="#cfd2e4" fill-opacity="1"><g transform="translate(104.125946, 290.859751)"><g><path d="M 0.203125 -8.796875 L 0.203125 -8.390625 L 0.328125 -8.390625 C 1.140625 -8.390625 1.265625 -7.859375 1.265625 -7.0625 L 1.265625 0 L 6.203125 0 C 6.9375 0 7.15625 -0.359375 7.359375 -0.9375 L 7.75 -1.984375 L 7.390625 -2.125 C 6.921875 -0.953125 6.25 -0.59375 5.28125 -0.59375 L 3 -0.59375 L 3 -4.265625 L 6.46875 -4.265625 L 6.46875 -4.859375 L 3 -4.859375 L 3 -8.203125 L 5.140625 -8.203125 C 6.203125 -8.203125 6.8125 -7.734375 6.8125 -6.59375 L 7.203125 -6.59375 L 7.203125 -7.734375 C 7.203125 -8.265625 7 -8.796875 6.078125 -8.796875 Z M 0.203125 -8.796875 "/></g></g></g><g fill="#cfd2e4" fill-opacity="1"><g transform="translate(115.080421, 290.859751)"><g><path d="M 3.640625 0.234375 C 5.78125 0.234375 6.984375 -0.71875 6.984375 -2.25 C 6.984375 -3.21875 6.453125 -3.84375 5.234375 -4.546875 L 3.59375 -5.515625 C 2.765625 -6.015625 2.21875 -6.390625 2.21875 -7.140625 C 2.21875 -7.9375 2.8125 -8.4375 3.765625 -8.4375 C 5.125 -8.4375 5.953125 -7.734375 6.265625 -5.875 L 6.640625 -5.875 L 6.640625 -7.4375 C 6.640625 -8.453125 5.078125 -9.03125 3.625 -9.03125 C 1.796875 -9.03125 0.640625 -8.15625 0.640625 -6.75 C 0.640625 -5.78125 1.09375 -5.09375 2.296875 -4.375 L 3.9375 -3.390625 C 4.78125 -2.859375 5.296875 -2.421875 5.296875 -1.671875 C 5.296875 -0.8125 4.640625 -0.375 3.625 -0.375 C 2.125 -0.375 1.28125 -1.078125 1 -2.9375 L 0.625 -2.9375 L 0.625 -1.375 C 0.625 -0.359375 2.1875 0.234375 3.640625 0.234375 Z M 3.640625 0.234375 "/></g></g></g><g fill="#cfd2e4" fill-opacity="1"><g transform="translate(125.515254, 290.859751)"><g><path d="M 8.390625 -5.953125 C 8.390625 -6.75 8.390625 -7.515625 8.046875 -7.984375 C 7.5625 -8.5625 6.5625 -9.0625 4.890625 -9.0625 C 2.375 -9.0625 0.5 -6.953125 0.5 -4.265625 C 0.5 -1.703125 2.078125 0.265625 4.890625 0.265625 C 6.75 0.265625 7.890625 -0.40625 8.734375 -1.875 L 8.265625 -2.234375 C 7.625 -1 6.515625 -0.328125 5.296875 -0.328125 C 3.171875 -0.328125 2.359375 -2.21875 2.359375 -4.265625 C 2.359375 -7.5 3.65625 -8.46875 5.296875 -8.46875 C 6.765625 -8.46875 7.65625 -7.578125 8 -5.953125 Z M 8.390625 -5.953125 "/></g></g></g><g fill="#cfd2e4" fill-opacity="1"><g transform="translate(137.522332, 290.859751)"><g><path d="M 3.875 -8.265625 C 4.671875 -8.265625 5.609375 -7.796875 5.609375 -6.40625 C 5.609375 -5.015625 4.671875 -4.5625 3.8125 -4.5625 L 3.015625 -4.5625 L 3.015625 -8.171875 C 3.3125 -8.234375 3.578125 -8.265625 3.875 -8.265625 Z M 4.875 -1.796875 C 5.765625 -0.328125 6.515625 0.140625 7.46875 0.140625 C 7.796875 0.140625 8.21875 0.0625 8.375 0 L 8.375 -0.328125 C 7.984375 -0.40625 7.390625 -0.671875 6.71875 -1.796875 L 5.3125 -4.125 C 6.328125 -4.390625 7.484375 -4.9375 7.484375 -6.34375 C 7.484375 -8.53125 5.140625 -8.796875 3.875 -8.796875 L 0.203125 -8.796875 L 0.203125 -8.390625 L 0.328125 -8.390625 C 1.140625 -8.390625 1.265625 -7.859375 1.265625 -7.0625 L 1.265625 0 L 3.015625 0 L 3.015625 -4.03125 L 3.546875 -4.03125 Z M 4.875 -1.796875 "/></g></g></g><g fill="#cfd2e4" fill-opacity="1"><g transform="translate(148.689985, 290.859751)"><g><path d="M 1.046875 -1.734375 C 1.046875 -0.390625 1.3125 0 2.25 0 L 3.859375 0 L 3.859375 -0.40625 L 3.71875 -0.40625 C 2.921875 -0.40625 2.78125 -0.9375 2.78125 -1.734375 L 2.78125 -8.796875 L 1.046875 -8.796875 Z M 1.046875 -1.734375 "/></g></g></g><g fill="#cfd2e4" fill-opacity="1"><g transform="translate(155.700515, 290.859751)"><g><path d="M 3.859375 -8.265625 C 4.703125 -8.265625 5.59375 -7.828125 5.59375 -6.1875 C 5.59375 -4.53125 4.703125 -4.09375 3.796875 -4.09375 L 3 -4.09375 L 3 -8.171875 C 3.28125 -8.21875 3.578125 -8.265625 3.859375 -8.265625 Z M 0.203125 -8.796875 L 0.203125 -8.390625 L 0.328125 -8.390625 C 1.140625 -8.390625 1.265625 -7.859375 1.265625 -7.0625 L 1.265625 0 L 3 0 L 3 -3.5625 L 4.265625 -3.5625 C 5.046875 -3.5625 7.46875 -3.8125 7.46875 -6.125 C 7.46875 -8.5625 5.0625 -8.796875 3.859375 -8.796875 Z M 0.203125 -8.796875 "/></g></g></g><g fill="#cfd2e4" fill-opacity="1"><g transform="translate(166.348527, 290.859751)"><g><path d="M 1.34375 -8.796875 C 0.421875 -8.796875 0.21875 -8.265625 0.21875 -7.734375 L 0.21875 -6.59375 L 0.609375 -6.59375 C 0.609375 -7.78125 1.203125 -8.203125 2.140625 -8.203125 L 3.09375 -8.203125 L 3.09375 0 L 4.828125 0 L 4.828125 -8.203125 L 7.609375 -8.203125 L 7.609375 -8.796875 Z M 1.34375 -8.796875 "/></g></g></g><g fill="#cfd2e4" fill-opacity="1"><g transform="translate(176.969896, 290.859751)"><g><path d="M 1.046875 -1.734375 C 1.046875 -0.390625 1.3125 0 2.25 0 L 3.859375 0 L 3.859375 -0.40625 L 3.71875 -0.40625 C 2.921875 -0.40625 2.78125 -0.9375 2.78125 -1.734375 L 2.78125 -8.796875 L 1.046875 -8.796875 Z M 1.046875 -1.734375 "/></g></g></g><g fill="#cfd2e4" fill-opacity="1"><g transform="translate(183.980426, 290.859751)"><g><path d="M 7.4375 -4.390625 C 7.4375 -1.796875 6.5 -0.328125 4.890625 -0.328125 C 3.28125 -0.328125 2.359375 -1.796875 2.359375 -4.390625 C 2.359375 -7 3.28125 -8.46875 4.890625 -8.46875 C 6.5 -8.46875 7.4375 -7 7.4375 -4.390625 Z M 0.5 -4.390625 C 0.5 -1.765625 2.234375 0.265625 4.890625 0.265625 C 7.546875 0.265625 9.28125 -1.765625 9.28125 -4.390625 C 9.28125 -7.03125 7.546875 -9.0625 4.890625 -9.0625 C 2.234375 -9.0625 0.5 -7.03125 0.5 -4.390625 Z M 0.5 -4.390625 "/></g></g></g><g fill="#cfd2e4" fill-opacity="1"><g transform="translate(196.707011, 290.859751)"><g><path d="M 2.984375 -8 C 2.578125 -8.53125 1.984375 -8.796875 0.96875 -8.796875 L 0.046875 -8.796875 L 0.046875 -8.390625 L 0.109375 -8.390625 C 1.046875 -8.390625 1.3125 -7.875 1.3125 -7.203125 L 1.3125 0 L 1.96875 0 L 1.96875 -6.59375 L 7.625 0.046875 L 8.234375 0.046875 L 8.234375 -8.796875 L 7.578125 -8.796875 L 7.578125 -2.671875 Z M 2.984375 -8 "/></g></g></g><g fill="#cfd2e4" fill-opacity="1"><g transform="translate(208.887312, 290.859751)"><g/></g></g><g fill="#cfd2e4" fill-opacity="1"><g transform="translate(215.178335, 290.859751)"><g><path d="M 4.109375 -8.265625 C 6.03125 -8.265625 7.328125 -6.75 7.328125 -4.390625 C 7.328125 -2 5.984375 -0.53125 4.125 -0.53125 C 3.578125 -0.53125 3.3125 -0.59375 3 -0.625 L 3 -8.171875 C 3.328125 -8.21875 3.671875 -8.265625 4.109375 -8.265625 Z M 0.203125 -8.796875 L 0.203125 -8.390625 L 0.328125 -8.390625 C 1.140625 -8.390625 1.265625 -7.859375 1.265625 -7.0625 L 1.265625 0 L 4.171875 0 C 7.53125 0 9.328125 -1.828125 9.328125 -4.453125 C 9.328125 -7.15625 7.484375 -8.796875 3.828125 -8.796875 Z M 0.203125 -8.796875 "/></g></g></g><g fill="#cfd2e4" fill-opacity="1"><g transform="translate(227.944893, 290.859751)"><g><path d="M 0.203125 -8.796875 L 0.203125 -8.390625 L 0.328125 -8.390625 C 1.140625 -8.390625 1.265625 -7.859375 1.265625 -7.0625 L 1.265625 0 L 6.203125 0 C 6.9375 0 7.15625 -0.359375 7.359375 -0.9375 L 7.75 -1.984375 L 7.390625 -2.125 C 6.921875 -0.953125 6.25 -0.59375 5.28125 -0.59375 L 3 -0.59375 L 3 -4.265625 L 6.46875 -4.265625 L 6.46875 -4.859375 L 3 -4.859375 L 3 -8.203125 L 5.140625 -8.203125 C 6.203125 -8.203125 6.8125 -7.734375 6.8125 -6.59375 L 7.203125 -6.59375 L 7.203125 -7.734375 C 7.203125 -8.265625 7 -8.796875 6.078125 -8.796875 Z M 0.203125 -8.796875 "/></g></g></g><g fill="#cfd2e4" fill-opacity="1"><g transform="translate(238.899372, 290.859751)"><g><path d="M 3.984375 0.140625 L 4.515625 0.140625 L 8.359375 -8.796875 L 7.671875 -8.796875 L 4.859375 -2.25 L 2.765625 -7.234375 C 2.125 -8.75 1.046875 -8.9375 0.125 -8.9375 C 0 -8.9375 -0.375 -8.90625 -0.4375 -8.90625 L -0.4375 -8.640625 C 0.09375 -8.5625 0.453125 -8.234375 0.875 -7.234375 Z M 3.984375 0.140625 "/></g></g></g><g fill="#cfd2e4" fill-opacity="1"><g transform="translate(250.320197, 290.859751)"><g><path d="M 1.046875 -1.734375 C 1.046875 -0.390625 1.3125 0 2.25 0 L 3.859375 0 L 3.859375 -0.40625 L 3.71875 -0.40625 C 2.921875 -0.40625 2.78125 -0.9375 2.78125 -1.734375 L 2.78125 -8.796875 L 1.046875 -8.796875 Z M 1.046875 -1.734375 "/></g></g></g><g fill="#cfd2e4" fill-opacity="1"><g transform="translate(257.330733, 290.859751)"><g><path d="M 8.390625 -5.953125 C 8.390625 -6.75 8.390625 -7.515625 8.046875 -7.984375 C 7.5625 -8.5625 6.5625 -9.0625 4.890625 -9.0625 C 2.375 -9.0625 0.5 -6.953125 0.5 -4.265625 C 0.5 -1.703125 2.078125 0.265625 4.890625 0.265625 C 6.75 0.265625 7.890625 -0.40625 8.734375 -1.875 L 8.265625 -2.234375 C 7.625 -1 6.515625 -0.328125 5.296875 -0.328125 C 3.171875 -0.328125 2.359375 -2.21875 2.359375 -4.265625 C 2.359375 -7.5 3.65625 -8.46875 5.296875 -8.46875 C 6.765625 -8.46875 7.65625 -7.578125 8 -5.953125 Z M 8.390625 -5.953125 "/></g></g></g><g fill="#cfd2e4" fill-opacity="1"><g transform="translate(269.337816, 290.859751)"><g><path d="M 0.203125 -8.796875 L 0.203125 -8.390625 L 0.328125 -8.390625 C 1.140625 -8.390625 1.265625 -7.859375 1.265625 -7.0625 L 1.265625 0 L 6.203125 0 C 6.9375 0 7.15625 -0.359375 7.359375 -0.9375 L 7.75 -1.984375 L 7.390625 -2.125 C 6.921875 -0.953125 6.25 -0.59375 5.28125 -0.59375 L 3 -0.59375 L 3 -4.265625 L 6.46875 -4.265625 L 6.46875 -4.859375 L 3 -4.859375 L 3 -8.203125 L 5.140625 -8.203125 C 6.203125 -8.203125 6.8125 -7.734375 6.8125 -6.59375 L 7.203125 -6.59375 L 7.203125 -7.734375 C 7.203125 -8.265625 7 -8.796875 6.078125 -8.796875 Z M 0.203125 -8.796875 "/></g></g></g><g fill="#cfd2e4" fill-opacity="1"><g transform="translate(280.300789, 290.859751)"><g/></g></g><g clip-path="url(#93388f78c7)"><path fill="#17207a" d="M 180.195312 79.683594 L 218.429688 79.683594 C 233.136719 79.683594 245.183594 91.722656 245.183594 106.441406 L 245.183594 111.667969 L 254.996094 130.929688 L 245.386719 133.199219 L 245.386719 153.84375 C 245.386719 157.203125 242.636719 159.953125 239.277344 159.953125 L 233.59375 159.953125 C 230.222656 159.953125 227.40625 162.480469 226.96875 165.746094 C 227.007812 166.035156 227.027344 166.335938 227.027344 166.644531 L 227.027344 180.019531 C 227.027344 183.699219 224.015625 186.710938 220.335938 186.710938 L 206.953125 186.710938 C 203.273438 186.710938 200.261719 183.699219 200.261719 180.019531 L 200.261719 166.636719 C 200.261719 162.984375 197.296875 159.992188 193.65625 159.945312 L 180.195312 159.945312 C 176.515625 159.945312 173.503906 156.933594 173.503906 153.253906 L 173.503906 139.878906 C 173.503906 136.199219 176.515625 133.1875 180.195312 133.1875 L 193.570312 133.1875 C 197.25 133.1875 200.261719 130.175781 200.261719 126.496094 L 200.261719 113.121094 C 200.261719 109.441406 197.25 106.429688 193.570312 106.429688 L 180.195312 106.429688 C 176.515625 106.429688 173.503906 103.417969 173.503906 99.738281 L 173.503906 86.375 C 173.515625 82.695312 176.527344 79.683594 180.195312 79.683594 Z M 180.195312 79.683594 " fill-opacity="1" fill-rule="evenodd"/></g><path fill="#3c50d0" d="M 140.066406 106.441406 L 126.691406 106.441406 C 123.011719 106.441406 120 109.453125 120 113.132812 L 120 126.503906 C 120 130.1875 123.011719 133.199219 126.691406 133.199219 L 140.066406 133.199219 C 143.746094 133.199219 146.757812 130.1875 146.757812 126.503906 L 146.757812 113.132812 C 146.757812 109.453125 143.746094 106.441406 140.066406 106.441406 Z M 140.066406 106.441406 " fill-opacity="1" fill-rule="evenodd"/><g clip-path="url(#86dec8da70)"><path fill="#0a21c0" d="M 153.449219 159.945312 L 166.820312 159.945312 C 170.503906 159.945312 173.515625 162.957031 173.515625 166.636719 L 173.515625 180.007812 C 173.515625 183.691406 170.503906 186.703125 166.820312 186.703125 L 153.449219 186.703125 C 149.769531 186.703125 146.757812 183.691406 146.757812 180.007812 L 146.757812 166.636719 C 146.757812 162.957031 149.769531 159.945312 153.449219 159.945312 Z M 153.449219 159.945312 " fill-opacity="1" fill-rule="evenodd"/></g></svg>